<?xml version="1.0" standalone="no"?>
<!DOCTYPE svg PUBLIC "-//W3C//DTD SVG 20010904//EN"
 "http://www.w3.org/TR/2001/REC-SVG-20010904/DTD/svg10.dtd">
<svg version="1.0" xmlns="http://www.w3.org/2000/svg"
 width="200.000000pt" height="200.000000pt" viewBox="0 0 200.000000 200.000000"
 preserveAspectRatio="xMidYMid meet">
<metadata>
Created by potrace 1.10, written by Peter Selinger 2001-2011
</metadata>
<g transform="translate(0.000000,200.000000) scale(0.100000,-0.100000)"
fill="#000000" stroke="none">
<path d="M234 1981 c-9 -9 -4 -1630 5 -1635 5 -4 12 -24 16 -45 8 -51 48 -90
135 -132 17 -9 107 -15 271 -18 239 -6 246 -7 281 -30 19 -14 40 -36 45 -50
l10 -26 11 26 c6 15 28 37 49 50 37 23 47 24 278 29 231 5 242 6 289 30 60 31
103 74 111 111 4 16 11 29 16 29 5 0 9 332 9 833 l0 832 -761 0 c-418 0 -763
-2 -765 -4z m1456 -34 c0 -5 5 -5 10 -2 6 3 10 -1 10 -9 0 -9 5 -16 10 -16 7
0 10 -250 8 -787 -3 -852 -2 -832 -57 -881 -14 -13 -44 -33 -66 -44 -37 -20
-57 -22 -265 -24 -238 -3 -265 -6 -293 -31 -9 -9 -20 -13 -23 -10 -4 3 -13 0
-21 -8 -11 -12 -18 -12 -33 -3 -10 7 -16 16 -14 20 3 5 2 8 -3 7 -4 -1 -20 3
-34 8 -14 7 -125 13 -261 15 -168 2 -239 7 -250 15 -8 7 -18 10 -21 6 -4 -3
-7 -1 -7 5 0 7 -6 12 -14 12 -7 0 -19 7 -26 15 -7 8 -16 12 -21 9 -5 -3 -9 -2
-8 3 1 4 -3 20 -9 36 -7 15 -17 39 -23 54 -11 29 -14 1591 -3 1602 12 12 231
16 811 16 332 0 603 -4 603 -8z"/>
<path d="M991 1898 c-1 -10 -5 -18 -10 -18 -5 0 -13 -9 -16 -20 -5 -15 -15
-20 -43 -20 -20 0 -48 -3 -61 -7 -23 -6 -23 -7 -5 -14 10 -4 36 -8 57 -8 36
-1 37 -2 37 -36 0 -19 -3 -35 -7 -35 -4 0 -23 11 -42 24 -48 32 -101 44 -101
22 0 -22 47 -96 65 -103 31 -11 16 -33 -22 -33 -41 0 -125 -39 -120 -55 9 -27
183 -35 239 -12 20 8 41 11 49 7 8 -5 38 -12 66 -18 58 -10 184 5 190 24 6 20
-75 56 -117 52 -46 -4 -64 17 -26 32 23 9 66 77 66 106 0 12 -6 15 -22 10 -13
-3 -28 -6 -35 -6 -6 0 -26 -12 -43 -26 -17 -15 -33 -25 -35 -23 -2 2 -5 18 -7
34 -3 29 -1 30 47 36 28 4 61 12 75 17 21 9 15 10 -35 9 -66 -1 -115 20 -134
57 -8 18 -10 18 -10 4z m23 -60 c8 -18 17 -53 20 -77 5 -35 3 -48 -12 -65 -11
-12 -22 -34 -26 -49 -6 -24 -8 -26 -21 -13 -20 20 -20 151 0 200 8 20 17 36
20 36 2 0 11 -15 19 -32z m146 -70 c0 -7 -19 -37 -43 -65 -39 -49 -71 -66 -90
-47 -9 9 37 62 82 96 40 31 51 34 51 16z m-260 -52 c0 -28 -14 -24 -37 9 -31
45 -29 51 7 25 17 -12 30 -27 30 -34z m35 -65 c3 -6 2 -11 -3 -11 -15 0 -35
47 -26 61 5 9 10 6 15 -13 4 -15 10 -31 14 -37z m-6 -30 c18 -16 19 -20 5 -25
-8 -3 -47 -6 -86 -6 -79 0 -88 15 -22 36 57 17 78 16 103 -5z m166 9 c4 -6 11
-8 16 -4 18 11 89 -7 89 -23 0 -12 -12 -14 -72 -9 -111 8 -118 9 -118 22 0 21
74 32 85 14z"/>
<path d="M1280 1839 c0 -4 -16 -6 -36 -5 -22 1 -39 -4 -41 -12 -4 -10 23 -12
128 -10 91 2 134 7 136 15 3 8 -24 13 -91 15 -53 2 -96 0 -96 -3z"/>
<path d="M520 1826 c0 -11 27 -14 140 -15 120 -2 140 0 140 14 0 13 -21 15
-140 15 -113 0 -140 -3 -140 -14z"/>
<path d="M492 1808 c-8 -14 -12 -31 -11 -39 6 -29 -14 -80 -42 -110 -29 -31
-29 -33 -13 -58 9 -14 22 -30 28 -36 21 -18 35 -269 34 -602 0 -178 -5 -323
-9 -323 -5 0 -9 -71 -9 -158 0 -172 3 -183 55 -198 43 -13 955 -2 978 12 16 9
19 29 23 158 3 111 1 157 -10 189 -11 34 -13 111 -10 417 3 404 7 479 22 489
5 3 17 21 26 40 20 39 14 81 -12 81 -10 0 -18 9 -19 23 -4 50 -21 119 -31 129
-7 7 -12 10 -13 7 -6 -56 -3 -91 9 -98 11 -6 13 -19 9 -45 -6 -36 -5 -36 29
-36 20 0 34 -3 32 -7 -25 -52 -34 -63 -50 -63 -11 0 -16 -5 -13 -10 4 -6 1
-18 -6 -26 -8 -9 -9 -18 -3 -22 5 -4 10 -11 11 -17 1 -5 5 -19 9 -29 6 -16 4
-18 -19 -14 -19 4 -27 1 -27 -8 0 -8 4 -14 9 -14 5 0 9 -171 8 -397 0 -295 3
-398 11 -401 9 -3 12 -51 12 -168 l0 -164 -502 2 -502 3 2 60 c1 33 4 88 5
123 2 34 -1 62 -6 62 -4 0 -5 5 -1 12 14 23 16 64 20 463 3 229 9 404 14 410
15 18 0 26 -23 14 -19 -11 -19 -9 -12 22 4 19 8 49 10 67 1 27 -2 32 -21 32
-12 0 -24 8 -27 18 -2 9 -8 25 -12 35 -6 14 -2 17 28 17 l35 0 -5 40 c-4 26
-2 40 6 40 12 0 13 40 2 79 l-6 23 -13 -24z"/>
<path d="M553 1733 c-34 -13 -2 -18 112 -15 75 2 123 7 120 13 -6 9 -210 12
-232 2z"/>
<path d="M1200 1730 c0 -6 51 -10 133 -10 89 0 127 3 117 10 -20 13 -250 13
-250 0z"/>
<path d="M603 1643 c26 -2 67 -2 90 0 23 2 2 3 -48 3 -49 0 -68 -1 -42 -3z"/>
<path d="M1318 1643 c23 -2 61 -2 85 0 23 2 4 4 -43 4 -47 0 -66 -2 -42 -4z"/>
<path d="M528 1603 c12 -2 22 -9 22 -14 0 -14 67 -11 74 4 5 10 7 10 12 0 3
-7 17 -13 30 -13 14 0 23 4 20 9 -4 5 0 12 6 14 7 3 -32 5 -87 5 -55 0 -90 -3
-77 -5z"/>
<path d="M1300 1598 c40 -16 152 -17 168 -2 11 12 -3 14 -90 13 -81 0 -98 -3
-78 -11z"/>
<path d="M588 1543 c28 -2 76 -2 105 0 28 2 5 3 -53 3 -58 0 -81 -1 -52 -3z"/>
<path d="M1313 1543 c26 -2 67 -2 90 0 23 2 2 3 -48 3 -49 0 -68 -1 -42 -3z"/>
<path d="M535 1510 c8 -12 52 -13 59 -2 3 5 -11 9 -30 10 -20 1 -32 -3 -29 -8z"/>
<path d="M616 1511 c-4 -5 -3 -16 0 -25 9 -23 -5 -40 -21 -26 -9 8 -15 8 -20
0 -3 -5 0 -12 7 -15 10 -4 13 -81 12 -395 -1 -215 3 -390 7 -390 5 0 9 -9 9
-20 0 -11 4 -20 9 -20 15 0 40 59 35 83 -8 36 -8 535 0 625 5 59 3 88 -5 98
-9 11 -8 14 5 14 9 0 16 6 16 14 0 9 -7 12 -20 9 -20 -5 -25 4 -14 30 3 10 16
13 43 10 22 -3 42 0 46 6 4 7 -12 11 -49 11 -30 0 -57 -4 -60 -9z"/>
<path d="M865 1510 c3 -5 17 -10 30 -10 13 0 27 5 30 10 4 6 -8 10 -30 10 -22
0 -34 -4 -30 -10z"/>
<path d="M987 1512 c-45 -3 -47 -4 -41 -29 6 -22 4 -24 -15 -18 -23 7 -30 -12
-8 -21 11 -4 14 -79 14 -405 0 -219 2 -401 5 -404 2 -2 27 -6 55 -8 50 -2 52
-2 57 28 3 16 5 198 5 402 -1 340 1 374 16 390 13 12 14 18 5 21 -7 3 -16 -1
-20 -8 -11 -18 -23 5 -15 29 7 24 1 27 -58 23z m32 -64 c6 -20 10 -183 10
-405 1 -366 1 -373 -19 -374 -11 -1 -25 -2 -31 -3 -7 -1 -11 118 -12 397 -2
344 0 399 13 407 23 15 28 12 39 -22z"/>
<path d="M1066 1509 c3 -5 11 -9 19 -9 8 0 16 4 19 9 3 5 -5 9 -19 9 -14 0
-22 -4 -19 -9z"/>
<path d="M1154 1511 c-2 -2 -1 -14 2 -26 6 -24 -10 -43 -21 -25 -10 16 -25 12
-19 -5 4 -8 11 -15 18 -15 8 0 11 -107 10 -405 l-1 -405 48 0 c27 0 52 0 57 0
4 0 9 183 12 407 4 319 8 407 18 406 6 -2 12 4 12 12 0 11 -7 14 -25 9 -24 -6
-25 -4 -20 19 6 24 4 25 -40 29 -25 2 -48 1 -51 -1z m65 -53 c11 -17 14 -52
11 -138 -5 -166 -2 -571 4 -607 7 -37 -13 -58 -44 -48 -21 7 -22 12 -20 153 1
81 2 255 1 387 -2 161 1 241 8 243 6 2 11 10 11 18 0 21 13 17 29 -8z"/>
<path d="M1275 1510 c3 -5 24 -10 46 -10 36 0 39 -2 39 -27 0 -21 -3 -24 -12
-15 -16 16 -28 15 -28 -3 0 -8 7 -15 15 -15 17 0 20 -11 6 -25 -6 -6 -6 -28
-1 -55 12 -62 12 -622 0 -654 -6 -16 -6 -27 0 -31 6 -4 10 -17 10 -31 0 -19 5
-25 18 -22 9 2 17 8 17 15 0 6 3 15 8 19 4 4 7 181 7 394 0 284 3 389 12 398
16 16 2 28 -16 13 -11 -9 -15 -8 -19 3 -4 9 -2 18 3 21 23 14 -4 31 -56 33
-36 2 -53 -1 -49 -8z"/>
<path d="M1400 1509 c0 -5 11 -9 25 -9 14 0 25 4 25 9 0 5 -11 9 -25 9 -14 0
-25 -4 -25 -9z"/>
<path d="M746 1484 c7 -25 5 -27 -22 -20 -27 7 -28 7 -11 -11 15 -17 17 -57
17 -421 1 -221 4 -403 8 -405 15 -7 112 5 106 14 -3 5 -2 13 1 19 3 5 6 183 5
395 0 338 1 385 15 385 8 0 15 7 15 15 0 12 -7 14 -26 9 -25 -6 -26 -5 -20 20
6 26 5 26 -44 26 -49 0 -50 0 -44 -26z m65 -23 c0 -3 3 -15 5 -26 10 -43 8
-194 -4 -266 -8 -56 -9 -115 -2 -220 6 -79 12 -174 15 -211 2 -38 1 -69 -3
-69 -38 -7 -54 -4 -63 12 -6 13 -6 19 1 19 5 0 10 5 10 11 0 5 -3 8 -8 6 -4
-3 -4 41 -1 96 3 56 5 221 4 367 -1 146 2 273 7 282 8 16 37 15 39 -1z"/>
<path d="M773 1000 c0 -25 2 -35 4 -22 2 12 2 32 0 45 -2 12 -4 2 -4 -23z"/>
<path d="M563 643 c-18 -7 -16 -23 2 -23 8 0 15 7 15 15 0 8 -1 15 -2 14 -2 0
-9 -3 -15 -6z"/>
<path d="M1085 636 c-17 -12 -16 -14 13 -18 34 -5 41 2 19 21 -10 8 -18 7 -32
-3z"/>
<path d="M1293 643 c-24 -9 -13 -23 18 -23 27 0 30 2 19 15 -13 16 -17 17 -37
8z"/>
<path d="M660 630 c-11 -7 -5 -10 23 -10 23 0 36 4 32 10 -8 13 -35 13 -55 0z"/>
<path d="M872 633 c-23 -9 -3 -20 29 -15 22 3 27 7 18 13 -15 10 -27 10 -47 2z"/>
<path d="M1415 630 c-4 -6 5 -10 19 -10 14 0 26 5 26 10 0 6 -9 10 -19 10 -11
0 -23 -4 -26 -10z"/>
<path d="M621 583 c-1 -19 -7 -23 -33 -23 l-33 0 3 -50 c2 -27 7 -50 12 -50 4
0 5 20 2 45 l-5 45 54 -3 c53 -2 54 -3 57 -35 3 -26 0 -32 -17 -33 -12 -1 -27
-2 -33 -3 -9 -1 -12 -14 -10 -38 l4 -38 -41 0 c-23 0 -41 -4 -41 -10 0 -7 157
-10 450 -10 293 0 450 3 450 10 0 6 -16 10 -35 10 -32 0 -35 2 -35 30 0 20 5
30 15 30 8 0 15 5 15 10 0 6 -13 10 -30 10 -16 0 -30 -4 -30 -10 0 -5 5 -10
10 -10 6 0 10 -13 10 -30 l0 -29 -119 0 c-116 0 -120 0 -124 22 l-4 22 -2 -22
c-1 -21 -6 -23 -55 -23 l-55 0 -4 43 -4 42 -1 -42 -2 -42 -112 0 c-77 0 -115
4 -120 12 -6 9 -10 9 -16 -1 -6 -9 -26 -12 -58 -10 -45 3 -49 5 -49 28 0 22 5
25 38 28 20 2 37 7 37 13 0 5 -5 9 -11 9 -6 0 -9 14 -7 33 3 31 4 32 56 35 50
3 52 2 52 -23 0 -15 4 -24 10 -20 6 4 8 10 5 15 -10 16 25 31 67 28 40 -3 43
-6 46 -36 2 -18 -1 -32 -7 -32 -6 0 -11 -4 -11 -10 0 -5 8 -10 19 -10 16 0 18
6 13 45 l-5 45 57 0 58 0 -4 -42 c-3 -42 -2 -43 32 -48 40 -7 70 -2 70 11 0 5
-21 9 -46 9 -45 0 -45 0 -42 33 3 31 4 32 56 35 31 2 53 -1 53 -7 1 -11 4 -24
9 -38 1 -5 5 3 9 17 6 22 12 25 56 25 49 0 50 -1 53 -32 2 -18 0 -33 -5 -34
-53 -6 -94 -5 -98 2 -7 10 -35 0 -35 -12 0 -12 158 -10 166 2 3 5 0 9 -6 9 -7
0 -10 13 -8 33 3 31 4 32 57 35 l54 4 -5 -46 c-4 -34 -2 -46 8 -46 9 0 11 10
7 36 -5 29 -2 40 12 50 17 13 14 14 -27 14 -40 0 -47 3 -51 23 l-4 22 -2 -22
c-1 -22 -3 -22 -180 -22 -177 0 -180 0 -184 22 l-4 22 -2 -22 c-1 -21 -6 -23
-55 -23 -49 0 -55 2 -59 23 l-4 22 -2 -22 c-1 -22 -4 -22 -120 -22 -115 0
-120 1 -124 22 l-4 22 -2 -22z"/>
<path d="M796 483 c-4 -4 -22 -6 -41 -5 -19 2 -35 -2 -35 -8 0 -6 25 -10 60
-10 57 0 78 11 44 24 -19 7 -19 7 -28 -1z"/>
<path d="M862 469 c2 -6 8 -10 13 -10 5 0 11 4 13 10 2 6 -4 11 -13 11 -9 0
-15 -5 -13 -11z"/>
</g>
</svg>
