 <svg version="1.0" xmlns="http://www.w3.org/2000/svg"  width="300.000000pt" height="400.000000pt" viewBox="0 0 300.000000 400.000000"  preserveAspectRatio="xMidYMid meet">  <g transform="translate(0.000000,400.000000) scale(0.050000,-0.050000)" fill="#000000" stroke="none"> <path d="M162 7720 c-2 -278 -2 -280 43 -279 41 0 42 2 11 26 -27 21 -30 32 -10 53 19 21 18 23 -6 9 -24 -13 -25 -11 -8 12 12 16 20 77 19 135 -3 88 1 104 28 95 27 -10 27 -8 1 14 -20 16 -29 58 -28 120 2 64 -6 95 -22 95 -19 0 -26 -70 -28 -280z"/> <path d="M433 7735 c5 -298 26 -3017 29 -3670 2 -431 6 -454 65 -388 33 36 26 113 -8 92 -9 -5 -13 10 -8 34 4 24 -1 55 -12 69 -14 17 -14 29 0 38 14 8 15 25 3 45 -12 22 -8 48 11 77 23 35 24 48 4 60 -17 11 -14 19 14 30 33 13 34 15 4 17 -28 1 -33 18 -30 91 4 90 21 115 42 61 6 -17 29 -26 52 -21 23 4 41 -1 41 -12 0 -11 9 -15 20 -8 18 11 29 -16 22 -56 -4 -25 52 -74 67 -59 7 8 8 -1 1 -19 -7 -17 -2 -39 12 -47 16 -10 19 -7 8 11 -11 17 -8 21 7 12 13 -8 24 -30 25 -48 1 -28 3 -28 13 -4 6 17 19 35 29 42 15 10 -27 73 -135 204 -17 20 -25 44 -19 54 6 9 0 24 -13 32 -14 9 -18 6 -9 -9 8 -13 9 -23 2 -23 -19 0 -62 47 -73 79 -5 15 -25 30 -44 33 -20 3 -32 -5 -27 -19 5 -12 21 -20 37 -17 22 6 22 2 1 -19 -21 -22 -29 -21 -45 3 -35 56 -20 111 39 146 79 46 79 46 69 -52 -9 -84 47 -132 84 -73 6 11 2 19 -9 19 -11 0 -16 14 -9 30 6 17 1 30 -11 30 -12 0 -22 -11 -22 -23 0 -13 -5 -18 -12 -12 -7 7 1 32 18 55 20 29 33 34 38 17 6 -17 13 -14 22 10 8 21 6 30 -6 23 -11 -7 -20 -3 -20 9 0 11 16 21 35 22 33 0 33 2 1 20 -33 19 -34 52 -5 143 8 25 3 48 -14 58 -22 15 -22 21 -1 35 14 9 20 31 12 50 -7 18 -3 45 9 60 28 34 51 173 28 173 -9 0 -15 47 -12 103 l5 104 -50 -54 c-56 -60 -78 -68 -60 -22 6 17 0 50 -13 75 -14 24 -27 47 -28 51 -4 7 -87 -73 -87 -84 0 -23 77 -90 90 -78 9 8 10 -13 4 -47 -7 -34 -2 -72 9 -83 33 -33 4 -60 -73 -69 -50 -6 -70 0 -70 19 0 15 9 22 20 15 13 -8 13 6 0 41 -13 32 -14 63 -3 76 10 13 11 41 2 63 -26 63 -20 175 11 230 22 38 29 42 29 15 1 -19 10 -35 21 -35 11 0 40 -22 64 -50 24 -27 57 -50 75 -50 25 1 26 4 4 18 -18 11 -20 22 -6 30 11 7 21 28 21 47 7 252 5 408 -4 465 -6 39 -12 76 -13 83 0 8 -35 19 -76 26 l-75 13 2 169 c1 110 -6 169 -20 169 -16 1 -16 5 0 15 26 17 30 665 4 665 -9 0 -16 -11 -16 -25 -1 -47 -39 33 -40 82 0 38 8 46 40 37 28 -7 40 0 40 23 1 29 3 29 20 3 22 -34 22 -33 30 54 5 58 1 63 -32 45 -21 -11 -37 -27 -35 -35 6 -42 -6 -61 -33 -51 -20 7 -30 38 -30 89 0 85 12 96 50 45 34 -47 95 -7 100 66 2 31 11 106 20 165 13 90 11 105 -12 92 -23 -13 -23 -11 -3 11 37 40 30 65 -15 53 -22 -6 -35 -2 -29 8 6 10 24 18 40 18 16 0 30 16 31 35 15 199 12 225 -25 225 -20 0 -37 -11 -37 -24 0 -19 -5 -19 -24 0 -29 29 -63 32 -46 4 7 -11 -2 -20 -19 -20 -17 0 -31 9 -31 20 0 11 -12 20 -26 20 -19 0 -24 -61 -21 -265z m136 184 c-5 -8 7 -21 26 -28 31 -12 31 -17 5 -38 -40 -31 -47 -75 -10 -60 17 6 30 1 30 -11 0 -12 -19 -22 -41 -22 -26 0 -36 -8 -27 -23 8 -14 5 -18 -7 -10 -12 7 -26 2 -31 -12 -4 -14 -16 -18 -26 -8 -10 9 -5 26 12 40 38 29 54 104 18 82 -18 -11 -21 -5 -9 23 9 21 16 48 17 60 0 12 12 21 26 21 15 0 22 -6 17 -14z m-15 -232 c-8 -7 -4 -25 7 -39 15 -17 14 -36 -3 -63 -17 -29 -18 -48 -1 -77 12 -21 22 -27 22 -13 1 14 11 25 23 25 16 0 15 -9 -2 -30 -31 -38 -68 -38 -99 -2 -16 20 -17 32 -1 42 16 10 15 22 -2 43 -20 23 -19 28 4 23 15 -3 25 6 22 22 -7 34 10 82 29 82 7 0 8 -6 1 -13z m-34 -263 c1 -29 3 -30 19 -4 15 24 24 25 44 5 20 -20 18 -25 -11 -25 -32 0 -33 -4 -9 -34 21 -27 15 -26 -27 5 -50 35 -83 128 -36 99 11 -7 20 -28 20 -46z m126 -1504 c6 -25 0 -40 -17 -40 -36 0 -55 35 -41 72 15 38 44 22 58 -32z m12 -304 c1 15 10 21 20 15 30 -18 2 -82 -38 -85 -48 -4 -66 46 -36 100 l24 44 14 -50 c8 -27 15 -38 16 -24z m-38 -794 c0 -20 -13 -48 -30 -62 -47 -39 -39 -99 13 -89 23 4 37 2 30 -5 -7 -7 3 -31 22 -52 35 -40 34 -40 -20 -5 -30 20 -56 30 -57 23 -2 -6 -4 -20 -5 -30 -4 -27 -30 -49 -65 -54 -22 -4 -25 2 -9 20 11 14 14 33 6 42 -8 9 -4 10 10 2 18 -10 25 2 24 42 -2 49 -4 51 -19 16 -16 -38 -17 -38 -19 5 0 25 10 45 24 46 14 0 9 9 -10 21 -44 25 -27 61 21 43 30 -11 31 -8 7 21 -16 19 -21 34 -13 34 9 0 29 -16 44 -35 27 -32 28 -32 19 10 -5 25 -1 45 9 45 10 0 18 -17 18 -38z"/> <path d="M877 7935 c-1 -36 -5 -87 -7 -115 -3 -27 -11 -178 -17 -335 -6 -157 -16 -285 -22 -285 -6 0 -19 0 -30 0 -10 0 -15 18 -11 41 4 22 -1 35 -11 28 -10 -6 -19 0 -19 15 -1 19 -6 18 -19 -3 -11 -17 -13 -35 -5 -40 21 -16 22 -82 2 -70 -10 6 -18 2 -18 -10 0 -11 17 -21 38 -21 21 0 42 -10 46 -23 15 -45 71 42 85 132 15 103 40 117 61 36 8 -30 19 -44 24 -30 39 105 111 -46 106 -219 -7 -185 -4 -198 34 -192 21 4 38 -9 42 -32 6 -28 0 -35 -24 -25 -36 13 -49 -854 -14 -876 9 -5 7 -41 -5 -79 -17 -53 -28 -64 -47 -48 -30 25 -57 -26 -39 -74 16 -41 53 -38 55 5 1 21 8 13 18 -19 9 -30 8 -89 -1 -130 -18 -81 -6 -166 23 -166 10 0 18 9 18 20 0 11 7 19 15 18 57 -9 105 6 105 33 0 18 14 46 31 63 17 16 26 45 21 63 -42 140 -41 144 30 136 67 -7 109 -53 49 -53 -24 0 -29 -12 -19 -51 27 -109 17 -162 -37 -177 l-45 -13 50 -29 c28 -16 41 -29 30 -30 -11 0 -7 -9 10 -19 24 -16 20 -23 -20 -39 -28 -11 -38 -20 -24 -21 15 0 21 -10 14 -21 -19 -30 -50 -24 -50 10 0 17 -9 30 -20 30 -11 0 -20 -9 -20 -20 0 -12 -16 -10 -40 5 -26 16 -36 37 -28 61 11 36 9 36 -40 4 -28 -19 -48 -41 -43 -48 5 -8 0 -27 -10 -43 -15 -23 -19 -21 -20 11 -1 36 -4 35 -20 -7 -38 -94 23 -233 78 -178 20 20 28 19 41 -2 9 -14 22 -26 29 -25 39 6 37 -3 -5 -20 -26 -10 -64 -14 -85 -7 -42 13 -41 23 -37 -248 2 -119 -6 -196 -22 -215 -27 -33 -14 -364 15 -386 23 -17 21 -68 -3 -89 -12 -9 -8 -13 10 -7 17 4 27 23 24 41 -3 18 4 33 16 33 14 0 17 25 9 71 -14 70 -14 70 39 46 39 -18 59 -18 75 -2 17 17 12 20 -16 13 -48 -13 -145 58 -110 80 13 8 23 4 23 -8 0 -12 8 -17 18 -11 19 12 6 91 -15 91 -7 0 -14 23 -16 51 -2 30 6 48 20 43 13 -4 22 -26 21 -47 -3 -46 45 -55 61 -13 6 16 3 23 -7 17 -9 -5 -17 12 -17 39 0 28 6 50 14 50 8 0 14 14 14 30 0 17 -7 30 -16 30 -9 0 -17 -13 -17 -29 0 -42 -34 -56 -48 -20 -6 17 -4 26 6 20 34 -21 40 48 6 70 -30 19 -29 21 6 9 32 -10 35 -7 15 13 -20 20 -12 30 40 53 41 18 55 32 38 39 -15 5 -33 2 -40 -8 -30 -40 -64 -28 -38 13 14 22 36 36 49 31 14 -5 20 3 13 20 -6 16 4 35 25 42 21 8 39 4 43 -9 10 -30 65 -32 65 -3 0 12 9 16 20 9 32 -20 23 -50 -15 -52 -22 -1 -25 -5 -9 -11 14 -6 39 0 55 14 24 19 29 17 30 -14 2 -33 4 -32 23 7 12 24 35 49 51 55 26 10 26 7 5 -19 -34 -41 -13 -60 25 -22 43 43 148 61 114 21 -20 -25 -19 -28 7 -18 17 7 36 25 42 41 13 35 85 37 98 3 7 -20 18 -19 54 2 40 24 44 23 34 -5 -9 -23 -1 -32 27 -32 22 0 46 14 52 31 9 23 18 25 40 7 22 -19 25 -17 15 9 -8 22 -2 33 18 33 17 0 34 8 37 18 4 9 27 10 52 0 49 -18 62 -109 25 -177 -14 -28 -12 -40 10 -48 17 -7 30 -5 30 3 0 8 28 45 60 82 l60 68 -7 -68 c-6 -50 3 -75 30 -94 21 -15 34 -33 28 -42 -5 -8 13 -40 40 -71 27 -32 49 -69 49 -83 0 -15 20 -37 45 -50 25 -13 52 -36 61 -51 9 -15 32 -27 53 -27 20 0 46 -12 58 -27 17 -20 15 -26 -6 -26 -16 0 -25 7 -19 16 6 10 2 17 -9 17 -10 0 -24 -13 -30 -29 -16 -42 81 -113 139 -102 33 6 57 -5 78 -35 34 -49 40 -82 10 -64 -26 16 -25 3 3 -59 13 -28 32 -51 44 -51 11 0 14 -6 6 -13 -7 -7 5 -26 27 -41 44 -31 54 -70 15 -63 -14 3 -72 -11 -131 -31 l-105 -36 60 -68 c34 -38 61 -79 61 -90 0 -11 9 -15 20 -8 11 7 20 0 20 -15 0 -14 27 -42 60 -62 34 -20 56 -44 49 -54 -6 -11 2 -19 19 -19 16 0 38 -14 48 -32 10 -17 26 -32 36 -32 40 -2 188 -165 188 -207 0 -22 89 -88 121 -88 36 -1 42 -81 6 -81 -14 0 -31 -10 -39 -23 -9 -14 -5 -18 9 -9 13 8 23 3 23 -12 1 -19 6 -18 20 4 17 25 22 23 32 -15 7 -24 19 -40 28 -35 8 5 15 -40 15 -101 0 -91 -5 -106 -27 -87 -22 18 -28 16 -28 -6 0 -46 20 -55 75 -34 43 16 47 15 28 -9 -13 -15 -19 -61 -14 -102 9 -67 5 -74 -30 -65 -21 6 -34 3 -29 -6 6 -9 -1 -21 -15 -27 -15 -6 -10 -10 11 -11 20 -1 31 -11 23 -23 -7 -11 -32 -15 -56 -8 -40 12 -41 11 -10 -21 36 -38 94 -50 242 -51 88 -1 94 -4 75 -40 -17 -30 -15 -36 8 -27 21 8 27 -2 23 -39 -4 -37 2 -47 25 -38 17 7 25 3 19 -7 -7 -11 10 -21 36 -24 32 -2 49 7 49 26 0 17 10 30 21 30 12 0 16 -9 9 -20 -7 -12 -1 -19 14 -15 16 3 23 -10 20 -32 -6 -32 -2 -33 23 -10 24 23 25 29 1 43 -32 18 -38 54 -9 54 29 0 82 -61 70 -82 -6 -10 9 -18 34 -18 42 0 43 1 8 27 -26 19 -30 31 -14 41 13 8 23 5 23 -7 0 -11 15 -21 33 -21 30 0 29 4 -4 41 -40 44 6 40 65 -5 15 -13 31 -4 46 24 20 38 16 45 -39 66 -33 12 -61 34 -61 48 0 14 -10 26 -21 26 -12 0 -15 -10 -7 -23 10 -16 5 -18 -14 -5 -15 10 -91 18 -168 18 l-140 0 -6 87 c-6 76 -12 85 -45 75 -119 -37 -132 -37 -90 -3 21 17 55 31 75 31 43 0 43 -15 5 164 -43 205 -97 374 -148 461 -25 40 -38 83 -31 95 7 11 1 19 -14 15 -14 -3 -24 6 -21 20 3 14 -4 25 -15 25 -11 0 -20 14 -20 30 0 17 -8 30 -18 30 -10 0 -52 47 -94 105 -93 131 -235 322 -248 335 -119 122 -157 232 -63 181 22 -11 46 -8 69 9 20 14 56 21 80 15 43 -11 43 -11 7 31 -39 44 -72 49 -97 15 -8 -11 -35 3 -62 32 -26 29 -67 58 -91 66 -24 8 -43 22 -43 32 0 11 -14 19 -31 19 -17 0 -26 9 -19 20 7 11 4 20 -6 20 -31 0 -258 224 -353 348 -94 123 -114 201 -61 240 18 14 34 75 43 167 l13 145 -213 0 c-185 0 -266 19 -189 45 13 4 17 22 10 42 -8 20 -23 30 -34 23 -11 -7 -20 -3 -20 9 0 11 9 21 20 21 29 0 24 60 -5 61 -14 0 -7 14 15 30 35 27 42 27 63 -2 15 -20 28 -24 36 -10 8 12 24 16 37 8 17 -9 18 -6 3 10 -11 12 -43 25 -70 27 -41 3 -49 15 -51 71 -1 42 4 57 15 41 9 -14 17 -17 17 -5 0 12 -10 31 -22 43 -15 15 -8 30 25 54 25 17 35 32 21 32 -13 0 -24 14 -24 30 0 17 9 30 20 30 11 0 20 27 20 60 0 33 10 60 21 60 12 0 16 -8 10 -19 -6 -10 -2 -24 9 -31 12 -7 20 -6 18 4 -8 45 7 62 62 70 33 5 56 5 51 0 -5 -5 -1 -26 11 -47 15 -28 12 -40 -9 -49 -44 -16 -57 -88 -16 -88 27 -1 28 -4 5 -18 -16 -10 -40 -14 -54 -9 -15 6 -23 -4 -19 -26 4 -27 21 -36 63 -33 44 4 51 0 28 -14 -20 -13 -22 -19 -5 -20 14 0 25 -18 25 -40 0 -27 13 -40 40 -40 34 0 40 13 40 91 0 95 53 224 127 307 24 27 33 43 21 36 -12 -7 -21 0 -21 16 0 15 5 27 11 27 68 -8 95 11 127 86 34 81 35 82 122 72 48 -5 105 0 125 11 21 12 56 23 78 25 22 2 69 11 105 19 44 10 65 8 65 -7 0 -13 11 -23 25 -23 13 0 70 -22 125 -48 55 -27 125 -54 155 -61 29 -6 109 -66 177 -133 90 -89 128 -115 140 -95 9 14 23 19 31 10 9 -8 5 -22 -8 -30 -18 -11 -13 -46 19 -141 36 -104 39 -137 21 -186 -13 -32 -17 -73 -11 -89 7 -17 -11 -8 -38 19 -28 28 -63 92 -78 142 -16 57 -38 92 -57 92 -27 1 -28 3 -1 20 22 14 7 19 -56 20 -58 0 -89 10 -97 31 -7 17 -23 27 -37 22 -17 -7 -22 3 -15 28 11 45 -32 53 -74 14 -15 -14 -21 -15 -14 -3 8 15 -16 23 -72 23 -127 0 -147 -45 -105 -236 14 -62 -21 -85 -43 -29 -6 16 -19 25 -29 19 -10 -6 -18 -2 -18 10 0 11 11 21 24 21 13 0 7 12 -14 28 -21 15 -64 26 -95 24 -42 -3 -54 3 -45 25 9 23 5 24 -18 4 -23 -19 -40 -17 -80 10 -47 30 -56 86 -9 57 33 -20 137 -31 139 -14 1 9 4 36 6 60 3 24 -4 42 -16 40 -11 -2 -21 10 -21 26 -1 17 -23 33 -51 37 l-50 7 60 -65 c57 -61 57 -63 10 -39 l-50 26 40 -45 40 -46 -77 33 c-43 17 -81 32 -85 32 -4 0 -2 13 5 30 6 16 19 25 29 19 10 -6 12 3 6 20 -12 30 -100 65 -119 47 -5 -5 8 -27 29 -49 24 -26 36 -65 33 -113 -3 -40 1 -69 9 -64 7 4 28 -10 46 -31 28 -33 29 -39 4 -39 -17 0 -30 16 -30 35 -1 30 -3 31 -20 5 -11 -16 -20 -21 -20 -10 0 11 -9 7 -20 -10 -16 -25 -19 -24 -20 6 0 20 -9 31 -20 24 -11 -7 -20 -1 -20 14 -1 16 -6 18 -15 5 -21 -29 -70 -24 -81 9 -7 20 1 24 26 15 19 -8 47 -4 61 8 18 15 29 15 39 0 7 -12 22 -16 32 -10 12 8 10 25 -6 45 -22 26 -21 29 2 15 18 -11 24 -10 15 4 -15 24 -93 10 -93 -17 0 -35 -62 -17 -76 21 -10 29 -22 34 -44 20 -20 -12 -22 -18 -5 -19 14 0 25 -9 25 -20 0 -11 -11 -18 -25 -15 -16 3 -23 -15 -19 -51 4 -42 -10 -71 -57 -115 -63 -59 -70 -109 -35 -239 31 -111 38 -120 90 -107 37 9 48 6 38 -10 -8 -13 -23 -18 -33 -12 -11 6 -19 2 -19 -10 0 -11 9 -21 20 -21 11 0 20 -10 20 -21 0 -12 -11 -15 -25 -7 -20 11 -20 8 -1 -12 19 -20 17 -39 -8 -87 -39 -76 -51 -188 -22 -205 12 -8 17 -2 13 12 -5 15 12 47 38 73 26 26 42 56 35 67 -7 11 1 14 19 8 17 -7 31 -3 31 9 0 12 14 17 30 10 17 -6 30 -24 30 -39 0 -15 10 -28 21 -28 12 0 15 -11 7 -23 -10 -16 -4 -20 18 -11 18 7 47 -1 63 -18 17 -17 31 -21 31 -9 0 11 14 21 30 21 17 0 30 11 30 23 0 13 5 19 10 13 19 -19 -14 -76 -35 -63 -14 9 -17 1 -9 -19 7 -19 6 -33 -2 -31 -46 6 -77 -7 -77 -33 0 -16 8 -30 18 -30 9 0 12 -9 5 -20 -20 -32 28 -100 71 -100 21 0 39 -11 39 -23 0 -13 15 -41 34 -62 28 -30 29 -37 5 -31 -17 3 -29 -9 -29 -29 0 -19 9 -33 20 -30 11 3 18 11 16 18 -9 25 57 4 75 -24 28 -44 24 -52 -41 -79 -78 -32 -83 -119 -10 -177 36 -27 46 -50 36 -76 -12 -33 -9 -34 20 -10 19 16 34 44 34 64 0 65 23 106 42 76 13 -20 17 -21 18 -2 0 14 16 25 35 25 30 1 31 3 5 20 -25 16 -24 19 6 20 22 0 31 9 22 23 -9 15 -5 18 10 8 14 -8 20 -28 14 -43 -6 -15 -2 -28 9 -28 33 0 21 -72 -21 -120 -45 -52 -49 -72 -19 -90 11 -7 19 -24 17 -37 -6 -52 3 -99 17 -85 8 9 16 24 18 34 1 10 3 27 5 38 5 43 42 17 42 -30 0 -29 24 -73 57 -105 32 -30 96 -118 142 -195 47 -77 107 -173 134 -213 45 -66 49 -86 36 -188 -10 -83 -8 -111 8 -101 14 9 23 -1 23 -26 0 -29 11 -38 40 -32 22 4 40 -2 40 -14 0 -13 6 -17 13 -10 36 36 87 -76 87 -190 0 -84 8 -120 29 -128 16 -7 48 -43 71 -82 34 -57 51 -69 91 -61 28 5 55 1 62 -9 6 -10 23 -14 38 -8 15 6 33 2 40 -9 6 -10 22 -19 35 -19 16 1 15 6 -3 18 -42 26 -1 41 140 50 70 4 143 14 162 22 19 8 57 9 84 2 54 -14 113 52 70 78 -11 8 -15 31 -9 52 10 29 5 35 -20 25 -18 -7 -28 -24 -22 -39 10 -25 -61 -62 -81 -42 -14 14 -11 74 10 174 10 50 33 160 50 246 17 85 36 163 43 173 12 21 133 -14 153 -45 8 -12 35 -12 76 3 54 19 68 16 106 -22 23 -23 46 -33 49 -22 5 15 32 15 87 0 l79 -21 0 -156 c0 -162 -26 -208 -49 -85 -7 38 -20 66 -29 60 -22 -13 -14 -83 14 -116 13 -16 17 -35 9 -43 -53 -53 -18 -122 58 -115 86 8 90 13 47 56 -16 16 -30 43 -30 58 0 16 14 29 30 29 17 0 30 -10 30 -23 0 -13 6 -18 13 -11 7 7 2 26 -11 42 -18 21 -18 32 -1 43 18 10 17 18 0 29 -18 10 -15 23 9 47 18 18 23 33 11 33 -11 0 -21 10 -21 22 0 12 14 17 31 10 19 -7 26 -3 18 9 -7 11 0 36 14 55 24 31 24 31 -8 7 -32 -25 -35 -22 -37 30 0 31 -6 46 -11 32 -27 -68 -88 41 -74 133 4 26 -4 61 -18 78 -20 25 -20 28 0 17 14 -9 25 -6 25 6 0 11 -11 21 -25 21 -19 1 -19 4 -1 16 27 17 10 51 -29 59 -14 3 -25 -9 -25 -26 0 -17 -9 -26 -20 -19 -12 7 -16 20 -11 29 6 9 -12 16 -39 16 -31 0 -44 -8 -36 -22 7 -13 -5 -7 -27 12 -22 19 -50 35 -62 35 -12 0 -26 11 -32 25 -8 20 -10 20 -11 0 -2 -31 -55 -33 -74 -2 -9 15 -5 18 14 9 15 -8 11 -1 -11 17 -38 31 -83 6 -59 -33 6 -8 -4 -10 -21 -3 -24 9 -26 18 -10 38 17 20 12 23 -20 15 -25 -6 -41 -1 -41 14 0 20 -6 20 -30 0 -33 -27 -42 0 -11 31 11 11 22 49 25 84 2 36 11 65 20 65 20 0 6 118 -17 141 -9 9 -27 -4 -40 -32 -20 -41 -18 -49 9 -49 28 0 28 -3 1 -25 -31 -25 -38 -50 -128 -495 -28 -137 -59 -281 -69 -320 -10 -38 -32 -132 -50 -207 -47 -206 -72 -219 -159 -83 -39 61 -71 117 -71 124 0 46 -131 266 -154 257 -14 -5 -26 0 -26 11 0 11 -11 14 -23 6 -16 -10 -20 -4 -12 17 8 20 -1 34 -23 40 -23 6 -44 44 -60 104 -13 52 -46 118 -73 147 -27 30 -49 69 -49 87 0 19 -19 40 -42 47 -22 8 -36 18 -31 24 11 11 -11 42 -76 107 -21 21 -31 39 -21 39 9 0 -4 22 -29 49 -27 28 -39 58 -30 73 9 15 7 19 -6 11 -12 -8 -28 5 -35 27 -7 22 -20 40 -29 40 -33 0 -100 128 -76 143 13 8 37 4 53 -9 24 -20 27 -18 14 6 -12 25 -10 25 12 -1 47 -56 109 -39 100 26 -8 54 -14 57 -103 52 -99 -4 -149 13 -130 44 6 11 1 19 -12 19 -18 0 -18 8 1 30 14 17 37 30 52 30 38 0 63 59 57 137 -5 66 -5 66 32 26 21 -22 34 -58 29 -82 -4 -23 1 -37 11 -30 11 6 25 -2 31 -20 7 -17 20 -26 30 -20 10 7 13 22 5 35 -9 18 -6 18 13 0 21 -19 21 -31 2 -53 -19 -23 -19 -33 0 -44 15 -10 19 -7 10 8 -9 14 1 23 26 23 22 0 51 -20 64 -45 46 -86 153 -181 189 -168 28 11 29 19 8 44 -21 26 -20 37 8 64 31 31 33 29 36 -31 1 -35 4 -73 7 -84 3 -11 6 -34 8 -51 1 -17 11 -26 22 -19 11 7 14 -1 8 -19 -8 -20 -1 -31 18 -31 21 0 27 14 22 45 l-9 45 20 -45 c17 -39 26 -42 70 -22 27 13 46 30 40 38 -5 8 9 11 31 5 24 -7 40 -28 40 -53 1 -34 4 -37 19 -14 10 16 13 39 6 50 -6 12 -4 14 5 6 9 -8 29 -4 44 8 15 12 32 17 39 11 7 -7 43 1 82 17 38 16 76 24 85 19 9 -5 21 4 28 22 10 27 -3 29 -100 17 -74 -9 -129 -6 -165 11 -153 70 -176 85 -176 111 0 16 3 25 8 21 26 -27 119 34 115 74 -3 24 -6 56 -7 70 -2 20 -28 23 -98 15 -79 -10 -87 -8 -45 10 28 12 53 20 58 18 23 -8 36 54 17 77 -18 22 -28 19 -56 -17 -18 -25 -39 -36 -45 -25 -7 11 28 50 77 87 49 36 89 67 89 68 -2 27 -140 -1 -140 -29 0 -26 -11 -33 -40 -26 -34 9 -40 1 -40 -52 0 -46 -12 -68 -45 -82 -25 -11 -70 -39 -100 -63 -49 -40 -57 -41 -90 -13 -19 17 -54 37 -76 44 -63 19 -129 88 -129 135 0 43 40 19 192 -118 62 -56 68 -56 68 3 0 52 -120 211 -182 240 -21 10 -38 25 -38 34 0 9 -15 11 -33 4 -60 -23 -11 28 53 54 72 30 81 70 11 52 -55 -14 -91 23 -49 50 21 13 17 17 -16 18 -50 0 -69 -43 -57 -135 5 -39 0 -61 -11 -54 -82 51 -140 -121 -71 -209 22 -26 -47 -25 -197 5 -22 4 -48 9 -57 10 -10 2 -13 30 -6 63 13 63 -17 86 -33 25 -7 -26 -10 -24 -12 10 -1 25 -12 45 -23 45 -12 0 -16 9 -9 20 7 11 3 20 -9 20 -11 0 -21 18 -21 40 0 22 8 40 17 40 9 0 17 11 18 25 1 14 8 67 16 119 l14 93 -82 22 -83 23 0 106 c0 99 -4 108 -50 117 -63 12 -86 -17 -29 -35 36 -12 38 -17 12 -37 -43 -34 -31 -119 21 -142 76 -34 91 -100 24 -105 -119 -9 -215 221 -135 323 75 96 194 48 244 -98 20 -61 40 -83 86 -95 33 -8 62 -27 63 -41 2 -14 6 -65 11 -115 4 -49 9 -98 10 -107 2 -10 15 -8 30 4 15 13 34 16 43 8 9 -8 10 -4 3 9 -8 13 3 28 25 35 44 14 35 91 -10 91 -16 0 -28 13 -28 29 0 16 -27 45 -60 64 -93 55 -54 140 86 186 87 28 85 21 34 161 -46 125 -46 126 -23 112 9 -6 16 2 16 17 0 15 -10 23 -23 18 -12 -4 -40 12 -61 37 -30 35 -31 39 -4 19 19 -15 68 -31 110 -36 41 -5 101 -18 133 -28 32 -10 78 -19 104 -19 125 0 187 -311 78 -396 -62 -49 -62 -68 -1 -198 l49 -105 94 42 c84 37 97 38 117 11 17 -22 46 -27 114 -20 74 9 98 3 129 -29 21 -22 58 -46 83 -54 29 -9 45 -29 45 -58 0 -25 9 -54 20 -65 13 -13 14 -54 2 -117 -17 -89 -14 -103 40 -176 31 -44 63 -110 70 -147 14 -76 23 -81 79 -39 33 24 35 35 14 70 -14 22 -25 50 -25 62 0 11 -22 42 -50 67 -61 57 -63 72 -7 57 31 -8 40 -3 32 17 -5 15 3 42 18 60 45 52 14 152 -55 176 -67 23 -75 54 -18 72 22 7 40 30 40 51 0 27 -9 34 -33 25 -26 -10 -31 -5 -21 22 8 19 6 29 -3 24 -52 -32 -118 38 -116 121 3 69 8 80 31 60 24 -19 25 -16 6 20 -20 37 -16 48 29 77 46 30 51 30 41 4 -6 -17 -3 -34 7 -38 10 -3 13 -26 6 -51 -6 -24 -18 -41 -26 -36 -8 5 -14 -3 -14 -18 0 -14 14 -24 31 -20 18 3 41 7 52 8 11 1 8 10 -8 19 -22 14 -18 23 18 42 29 16 40 16 31 2 -7 -12 -5 -22 6 -22 10 0 25 15 32 34 11 30 16 31 32 5 11 -18 19 -20 19 -5 0 13 -9 29 -20 36 -44 27 -22 73 22 49 24 -13 37 -14 31 -3 -7 11 0 30 15 42 15 13 23 41 18 63 -12 45 -15 46 -67 18 -27 -14 -39 -14 -39 0 0 12 -19 21 -42 21 -28 0 -39 9 -31 29 12 33 -104 24 -182 -14 -37 -18 -50 -15 -73 16 -22 30 -33 33 -57 13 -16 -13 -32 -20 -37 -15 -5 4 -30 -8 -56 -27 l-47 -36 55 -54 55 -55 -14 75 c-12 65 -10 72 15 51 17 -14 28 -40 25 -59 -3 -19 7 -49 23 -67 26 -30 25 -36 -12 -56 -38 -20 -49 -15 -45 21 2 16 -98 8 -143 -11 -20 -9 -40 -12 -45 -6 -16 15 -27 174 -13 172 78 -11 137 50 82 84 -24 15 -23 22 2 48 39 38 122 52 156 25 19 -15 35 -11 59 13 25 24 26 33 7 33 -18 0 -24 19 -18 59 9 61 -44 92 -149 88 -30 -2 -31 3 -10 29 20 26 20 29 -2 15 -21 -12 -24 -6 -14 25 9 30 1 48 -30 64 -23 13 -38 28 -32 34 6 5 -12 31 -39 56 -57 53 -49 62 61 68 44 2 86 15 95 28 11 18 21 17 40 -4 19 -21 20 -24 1 -14 -14 8 -25 4 -25 -8 0 -46 110 -12 116 35 4 25 15 45 25 45 11 0 19 10 19 22 0 12 -14 17 -31 10 -17 -6 -26 -4 -20 6 6 10 -2 23 -18 29 -16 6 -32 0 -37 -13 -5 -13 -16 -17 -24 -9 -9 8 -3 31 14 50 30 35 85 223 70 238 -5 4 -34 -3 -66 -16 -76 -31 -95 -32 -113 -8 -9 14 -14 12 -15 -3 0 -14 -13 -20 -30 -13 -17 6 -35 -3 -42 -21 -14 -36 -68 -44 -68 -11 0 12 10 15 23 7 15 -9 18 -5 9 9 -8 13 -23 18 -34 12 -10 -6 -23 2 -30 18 -17 45 -67 57 -101 23 -36 -36 -75 -40 -55 -5 8 15 7 18 -4 8 -10 -9 -18 -27 -18 -40 0 -13 -18 -23 -40 -23 -22 0 -38 11 -35 25 4 20 -3 20 -33 1 -72 -44 -137 50 -72 104 37 31 6 80 -50 80 -40 0 -69 52 -39 71 10 6 15 42 11 80 -6 45 -1 66 15 63 12 -2 20 8 17 23 -3 18 6 24 25 16 16 -6 35 -3 42 8 6 10 2 19 -10 19 -11 0 -21 10 -21 21 0 12 8 16 19 10 10 -6 23 -3 30 7 6 10 -4 16 -23 13 -19 -2 -37 -15 -42 -28 -4 -13 -16 -23 -27 -23 -11 0 -14 9 -7 20 7 11 2 20 -10 20 -12 0 -16 10 -9 21 7 12 18 17 24 11 6 -6 33 13 61 42 27 30 40 57 28 61 -12 4 -16 22 -9 41 11 29 9 29 -19 3 -18 -16 -24 -32 -14 -36 27 -10 22 -57 -7 -68 -14 -6 -37 2 -51 18 -14 15 -16 27 -5 27 13 0 13 17 0 53 -16 43 -15 49 6 35 15 -10 12 -4 -7 13 -31 30 -31 34 -1 56 29 22 28 24 -11 16 -39 -8 -41 -4 -22 39 12 26 28 43 36 38 8 -5 30 3 50 18 32 23 27 25 -42 23 -92 -4 -136 31 -117 91 18 57 -30 87 -64 42 -21 -28 -26 -29 -27 -4 -1 27 -3 27 -20 0 -12 -18 -20 -20 -20 -6 0 13 9 29 20 36 29 18 3 54 -26 37 -16 -9 -16 -4 1 14 38 41 31 86 -10 71 -31 -11 -32 -9 -3 13 17 14 27 38 22 53 -7 20 1 24 24 15 24 -9 29 -5 19 12 -9 14 -17 43 -18 65 -7 103 -33 170 -67 170 -39 0 -62 -469 -62 -1237 0 -286 -21 -450 -28 -223 -2 44 -12 78 -23 75 -10 -3 -17 -11 -14 -19 2 -8 -9 -9 -25 -3 -22 8 -27 2 -18 -21 7 -17 20 -27 30 -21 10 6 18 -4 18 -22 0 -21 -11 -29 -30 -22 -16 7 -30 4 -30 -6 0 -10 -16 -15 -35 -12 -41 6 -65 84 -43 143 9 26 6 52 -7 65 -13 13 -14 23 -4 23 11 0 17 59 14 135 -7 158 -8 293 -3 318 1 9 1 22 -1 27 -19 49 -13 80 16 81 26 2 25 5 -7 19 -27 12 -30 18 -10 19 18 1 22 8 10 16 -28 21 -36 85 -10 85 15 0 15 12 1 39 -15 27 -15 43 1 52 16 10 14 19 -5 31 -17 11 -19 17 -4 18 17 0 19 19 4 70 -10 39 -13 81 -5 93 9 14 5 18 -8 10 -12 -8 -22 -66 -23 -129 -1 -204 2 -432 6 -510 3 -42 -3 -81 -11 -87 -9 -5 -8 -25 2 -44 11 -21 11 -47 0 -67 -10 -18 -11 -38 -2 -44 9 -5 13 -39 9 -76 -4 -36 -6 -84 -5 -106 1 -22 3 -49 4 -60 0 -11 -5 -50 -12 -87 -8 -41 -4 -78 10 -96 19 -22 17 -25 -9 -15 -18 7 -34 27 -35 45 -1 21 -5 24 -11 8 -6 -14 -23 -25 -39 -25 -16 0 -37 -20 -46 -45 -15 -38 -20 -29 -31 55 -21 158 -31 192 -52 180 -10 -7 -19 -3 -19 9 0 11 -13 21 -30 21 -16 0 -30 14 -30 30 0 23 13 27 49 19 43 -11 50 -5 59 54 19 122 32 226 33 262 1 19 10 35 20 35 11 0 9 17 -4 37 -18 29 -16 51 10 103 25 51 28 72 10 94 -18 22 -18 27 2 22 14 -3 31 7 36 22 7 19 0 25 -19 17 -59 -23 -88 65 -98 305 -2 61 -14 117 -26 125 -15 10 -15 20 -2 30 11 8 23 53 26 100 l5 85 -85 -3 c-47 -1 -66 -6 -41 -11 26 -5 40 -18 32 -31 -7 -12 -4 -15 9 -8 11 8 27 5 34 -7 7 -11 -1 -20 -17 -20 -17 0 -27 -15 -24 -35 3 -19 -4 -48 -17 -64 -16 -21 -16 -25 1 -15 23 14 81 -39 62 -58 -6 -5 -29 -12 -51 -13 -23 -2 -37 -11 -31 -19 5 -9 30 -13 55 -8 42 8 44 4 24 -58 -11 -37 -28 -63 -36 -57 -9 5 -16 0 -16 -12 0 -11 -28 -21 -61 -21 -34 0 -57 -7 -52 -16 6 -9 -7 -17 -28 -19 -22 -1 -39 6 -39 17 0 11 8 16 17 10 9 -6 16 2 16 17 0 16 -12 23 -31 16 -58 -20 -67 -30 -42 -45 17 -10 14 -18 -9 -27 -18 -7 -29 -6 -24 2 5 8 -4 27 -19 41 -23 21 -28 20 -28 -8 0 -26 -6 -28 -29 -9 -20 16 -40 18 -64 5 -24 -14 -42 -12 -61 7 -29 30 -35 57 -8 40 22 -13 73 45 55 63 -7 7 -13 3 -13 -8 0 -12 -19 -26 -43 -32 -28 -8 -38 -22 -30 -42 17 -47 -23 -59 -77 -24 -45 30 -48 30 -36 -1 8 -22 4 -29 -16 -23 -15 6 -25 27 -22 48 4 28 1 31 -12 12 -10 -15 -35 -29 -56 -33 -21 -3 -37 -20 -35 -37 2 -24 -8 -27 -42 -14 -48 18 -80 5 -83 -35 -5 -61 -9 -69 -34 -59 -15 5 -27 -6 -29 -28 -1 -21 8 -38 21 -38 19 -1 19 -4 0 -16 -47 -30 -49 -128 -2 -113 34 11 40 7 29 -20 -7 -19 -13 -39 -13 -44 0 -5 -7 -5 -15 0 -8 5 -14 -44 -13 -109 2 -66 -6 -124 -16 -130 -10 -7 -3 -35 16 -63 39 -61 52 -265 16 -251 -13 5 -30 -1 -37 -13 -8 -12 -7 -21 3 -19 53 9 70 -3 47 -31 -14 -16 -19 -39 -12 -50 8 -12 -1 -16 -23 -10 -20 6 -16 0 9 -13 48 -25 60 -58 23 -58 -15 0 -13 -12 5 -34 23 -29 23 -31 -3 -17 -24 14 -25 12 -5 -10 14 -15 25 -44 25 -64 0 -24 -9 -32 -25 -23 -20 11 -20 8 0 -13 36 -39 31 -113 -10 -140 -29 -18 -29 -20 -2 -12 34 11 31 -52 -6 -99 -9 -12 -11 -28 -3 -35 7 -8 -8 -10 -35 -5 -27 5 -65 10 -84 11 -19 0 -35 11 -35 22 0 12 8 17 17 11 9 -6 16 3 16 19 0 33 -64 40 -83 9 -7 -12 -21 -16 -31 -9 -10 6 -14 -1 -8 -17 6 -15 -3 -39 -20 -53 -18 -15 -31 -17 -31 -5 0 11 -18 16 -40 10 -31 -8 -38 -3 -28 21 8 23 -4 38 -40 52 -29 11 -52 26 -52 33 0 7 13 7 28 2 17 -7 32 4 38 27 7 25 2 34 -11 26 -14 -9 -17 -1 -7 25 8 21 17 47 18 58 2 11 13 27 24 35 13 10 13 20 0 30 -74 55 -98 151 -59 227 18 35 24 58 15 52 -10 -6 -31 -3 -47 7 -22 14 -22 18 -3 19 15 0 21 8 15 19 -6 10 7 24 29 31 25 8 40 30 40 61 0 28 10 45 25 42 14 -4 18 -3 10 2 -8 5 -9 19 -2 32 7 13 6 17 -2 9 -23 -21 -95 22 -79 47 7 12 1 29 -14 39 -24 15 -23 21 2 38 19 12 21 19 6 20 -15 0 -20 14 -12 34 8 21 16 25 21 10 6 -17 19 -18 47 -3 51 28 33 55 -33 48 -40 -5 -47 0 -29 21 12 14 41 22 66 16 35 -7 38 -5 14 11 -16 12 -52 16 -80 11 -34 -8 -42 -5 -24 7 14 10 25 27 23 37 -9 46 4 52 32 17 18 -22 27 -29 21 -17 -6 12 11 32 39 45 27 12 49 31 49 43 0 23 -183 109 -278 130 l-62 13 0 339 0 338 -60 0 c-54 0 -60 -7 -63 -65z m1453 -526 c154 -7 291 -16 305 -20 43 -14 32 -175 -15 -204 -22 -14 -40 -34 -40 -45 0 -11 18 -20 40 -20 34 0 40 -13 40 -88 l0 -88 -205 12 c-113 7 -286 12 -385 13 l-180 1 4 -80 c3 -44 6 -138 7 -208 2 -81 13 -139 31 -157 29 -28 19 -74 -11 -56 -9 6 -17 -25 -17 -69 -2 -109 12 -114 401 -131 362 -16 359 -15 285 -73 -28 -21 -46 -47 -40 -56 14 -23 -135 -46 -280 -44 -183 3 -236 -30 -191 -115 25 -46 -17 -166 -54 -152 -15 6 -25 -7 -25 -35 0 -24 -12 -66 -26 -94 -20 -40 -21 -64 -1 -120 14 -38 26 -97 28 -130 2 -52 4 -55 19 -20 14 31 17 23 18 -40 1 -59 -4 -72 -18 -50 -15 24 -20 20 -21 -20 -1 -44 -4 -46 -25 -16 -20 31 -25 29 -46 -20 l-23 -54 -22 55 c-21 53 -63 76 -63 35 0 -11 -14 -20 -32 -20 -20 0 -28 11 -21 28 6 17 -10 42 -38 61 -27 18 -48 43 -47 56 1 19 4 18 12 -1 6 -17 18 -19 33 -7 13 11 32 18 43 16 25 -4 27 64 4 114 -13 26 -11 34 4 24 21 -13 35 69 21 119 -3 11 -6 54 -7 95 -1 41 -7 75 -13 75 -6 0 -13 178 -15 395 -2 217 -9 569 -16 783 l-12 388 157 -13 c86 -7 283 -18 437 -24z m986 -469 c7 -519 2 -558 -67 -545 -72 14 -78 31 -93 285 -8 127 -18 266 -22 310 -4 44 -1 89 7 100 31 45 35 110 7 110 -20 0 -28 26 -28 91 l0 91 95 -6 95 -6 6 -430z m-1050 -63 c50 17 129 15 149 -5 21 -21 23 -73 2 -60 -10 6 -30 3 -43 -8 -13 -10 -40 -16 -59 -13 -20 3 -35 -7 -35 -25 0 -19 -11 -26 -30 -19 -16 7 -30 2 -30 -9 0 -11 -10 -14 -22 -7 -29 18 21 51 51 35 12 -7 10 0 -3 14 -12 14 -62 27 -110 29 -102 6 -156 26 -156 60 0 17 30 24 90 22 50 -2 90 4 90 14 0 10 14 4 31 -13 20 -21 45 -26 75 -15z m382 -54 c-5 -52 -10 -57 -63 -50 -38 5 -45 3 -20 -8 32 -14 32 -17 -4 -40 -27 -16 -43 -17 -52 -3 -8 13 -26 9 -50 -13 -20 -18 -46 -27 -58 -20 -11 7 -21 4 -21 -8 0 -11 -10 -21 -21 -21 -12 0 -16 9 -9 20 7 11 -1 14 -19 8 -44 -17 -38 2 19 64 28 30 50 44 50 31 0 -30 73 -30 92 0 9 14 5 18 -9 9 -13 -8 -23 -5 -23 6 0 33 66 60 130 54 33 -4 59 -17 58 -29z m-524 -85 c29 -12 58 -35 64 -51 7 -16 3 -24 -8 -17 -11 7 -20 -1 -20 -17 0 -15 -24 -44 -52 -63 -30 -19 -46 -23 -37 -9 11 19 6 22 -19 13 -20 -8 -29 -6 -22 6 7 11 5 20 -4 20 -26 0 -66 76 -55 105 13 34 84 40 153 13z m1354 -171 c-13 -15 -18 -46 -11 -70 8 -31 5 -37 -11 -21 -17 17 -29 14 -46 -10 -22 -29 -25 -29 -36 1 -8 21 2 40 29 55 35 18 37 26 15 42 -21 15 -19 17 9 8 31 -10 36 -5 27 29 -9 34 -6 37 18 17 22 -18 23 -30 6 -51z m-978 21 c11 -11 23 -51 28 -89 4 -38 9 -76 10 -84 1 -8 16 -15 34 -15 24 0 28 13 18 60 -12 52 -8 60 31 60 39 0 42 -7 29 -75 -19 -105 -23 -108 -121 -99 -48 4 -96 -1 -107 -12 -10 -10 -30 -11 -45 -2 -14 8 -57 19 -96 23 -95 10 -104 25 -14 25 52 0 73 9 73 31 0 23 -8 26 -37 11 -36 -20 -121 -9 -125 15 -1 7 -4 36 -8 63 -15 113 0 124 162 115 82 -4 158 -17 168 -27z m1322 -150 c-4 -16 -7 -64 -8 -109 -1 -77 -4 -81 -55 -73 -52 8 -53 10 -27 61 15 29 28 72 28 95 0 23 6 48 14 55 22 22 57 1 48 -29z m-210 -66 c4 -43 -1 -53 -25 -44 -17 7 -39 12 -49 12 -26 0 -22 48 6 76 36 36 61 20 68 -44z m428 29 c0 -21 8 -44 19 -50 10 -6 14 -41 8 -76 -6 -36 -11 -76 -12 -90 -1 -14 -13 -25 -28 -25 -14 0 -21 12 -16 26 6 15 -6 27 -31 28 -22 2 -40 -5 -40 -16 0 -11 -9 -15 -20 -8 -11 7 -20 -3 -20 -22 0 -48 -16 -28 -27 36 -10 57 2 82 31 64 10 -7 8 -24 -5 -40 -40 -47 -9 -31 40 21 l47 50 -63 -8 c-69 -9 -80 15 -33 77 15 20 41 32 57 26 17 -6 35 1 41 17 16 42 52 35 52 -10z m-1889 -19 c-7 -11 -49 -12 -137 -4 -9 1 -12 9 -6 18 5 9 42 13 81 8 39 -5 67 -14 62 -22z m-743 -574 c13 -34 -9 -48 -59 -38 -22 4 -46 8 -54 8 -8 1 -15 15 -15 31 0 36 114 36 128 -1z m222 -8 c0 -45 -98 -39 -106 6 -6 30 3 36 49 30 34 -3 57 -18 57 -36z m2 -146 c-9 -60 -7 -73 7 -44 16 36 18 35 20 -14 0 -29 -9 -60 -21 -67 -12 -7 -17 -31 -11 -52 6 -23 -2 -44 -18 -50 -47 -18 4 -92 53 -76 34 11 34 6 -9 -40 -57 -61 -73 -64 -73 -11 0 33 -10 37 -60 27 -55 -11 -60 -7 -55 35 4 36 -4 47 -30 42 -38 -6 -43 22 -15 86 17 39 17 39 19 -3 2 -70 61 -77 61 -7 0 42 8 56 27 48 35 -13 62 51 34 79 -15 15 -21 12 -21 -6 0 -15 -4 -23 -9 -18 -26 26 31 149 70 152 38 2 41 -5 31 -81z m1080 -123 c-2 -48 -13 -72 -38 -78 -28 -8 -33 -1 -23 29 6 21 2 38 -10 38 -11 0 -21 10 -21 21 0 12 8 16 18 10 9 -6 29 3 42 19 33 40 33 40 32 -39z m1607 -100 c33 -40 10 -69 -49 -63 -71 8 -86 31 -41 64 48 35 60 35 90 -1z m220 0 c33 -39 13 -66 -49 -66 -76 0 -65 84 13 93 6 1 23 -11 36 -27z m-2780 -271 c34 -18 42 -14 53 30 19 76 38 60 41 -35 l4 -85 -99 -4 -98 -3 2 123 1 124 28 -64 c16 -35 46 -74 68 -86z m-456 23 c28 -21 42 -16 85 27 85 85 215 10 224 -129 3 -46 0 -57 -8 -31 -15 44 -24 45 -112 20 -45 -12 -64 -8 -83 18 -15 20 -51 33 -92 32 -160 -3 -255 43 -137 67 46 9 56 20 47 47 -11 32 -9 33 15 5 16 -17 43 -42 61 -56z m829 -28 c8 -8 0 -16 -19 -17 -128 -10 -111 -38 23 -38 101 0 121 5 111 30 -8 21 -2 27 19 19 16 -7 36 -2 43 9 8 14 30 13 66 -4 l53 -24 -59 -13 -59 -12 65 -3 c36 -1 65 -10 65 -20 0 -25 -98 -40 -345 -52 -120 -6 -215 -3 -215 7 0 112 21 133 130 133 59 0 113 -7 122 -15z m-799 -104 c-7 -18 -35 -30 -67 -29 -33 0 -44 6 -26 13 16 6 42 24 57 39 33 33 53 20 36 -23z m2603 -607 c6 -41 1 -44 -50 -32 -71 17 -69 16 -54 56 19 50 97 33 104 -24z m-898 -584 c19 0 35 -11 35 -25 0 -41 63 -160 117 -223 27 -32 50 -68 50 -80 0 -12 45 -47 100 -78 122 -69 127 -82 15 -42 -164 58 -435 319 -435 420 0 38 70 93 76 60 4 -18 23 -32 42 -32z m1902 -158 c0 -60 -53 -170 -69 -144 -7 12 -22 17 -32 11 -11 -6 -19 -1 -19 11 0 13 -16 7 -35 -12 -44 -44 -57 -6 -36 104 15 82 191 110 191 30z m109 -60 c16 -31 24 -74 18 -97 -19 -72 -87 7 -87 101 0 85 24 84 69 -4z"/> <path d="M1880 7211 l0 -71 155 -4 c85 -2 215 -4 288 -5 74 0 140 -7 147 -15 8 -7 27 -8 42 -2 37 14 37 106 -1 106 -15 0 -32 16 -37 35 -8 32 -10 31 -12 -2 -2 -36 -325 -38 -382 -3 -8 5 -57 14 -108 20 l-92 11 0 -70z"/> <path d="M1862 5650 c-24 -101 -21 -198 6 -164 28 36 29 36 38 0 7 -29 10 -27 12 9 1 25 -6 45 -17 45 -10 0 -22 29 -27 65 -4 36 -10 56 -12 45z"/> <path d="M1180 7960 c44 -34 42 -49 -4 -43 -19 3 -2 -76 23 -105 13 -17 13 -50 -1 -101 -19 -69 -18 -116 8 -316 11 -80 34 -93 34 -18 0 35 10 63 22 63 14 0 19 48 15 135 -3 74 2 147 11 162 10 17 8 33 -7 42 -13 8 -24 61 -24 118 -1 102 -1 103 -64 103 l-63 -1 50 -39z"/> <path d="M1326 7986 c19 -5 34 -20 32 -33 -12 -97 6 -873 20 -864 25 15 39 -79 18 -117 -13 -24 -10 -29 13 -20 17 7 31 25 31 40 0 25 23 36 62 31 7 0 7 23 1 53 -11 51 -12 52 -19 8 -9 -60 -54 -45 -54 18 0 29 12 48 30 48 21 0 29 20 26 65 -2 36 4 65 14 65 24 0 4 101 -32 156 -27 40 -26 51 6 105 31 53 32 63 6 80 -22 13 -23 18 -4 19 15 0 21 8 15 19 -23 36 -27 191 -6 216 15 19 13 23 -8 15 -19 -7 -28 2 -28 28 0 22 7 35 15 29 9 -5 16 5 16 22 0 24 -21 30 -95 29 -52 -2 -79 -7 -59 -12z m149 -786 c1 -23 -5 -36 -15 -30 -9 6 -31 -4 -48 -21 -41 -41 -41 -21 0 42 40 60 58 62 63 9z"/> <path d="M2854 7960 c-6 -22 -2 -45 8 -51 11 -7 10 -27 -2 -49 -28 -51 -25 -60 15 -60 30 -1 31 -3 5 -20 -18 -12 -20 -20 -6 -20 31 0 52 34 28 49 -19 12 -14 136 8 170 7 12 -1 21 -16 21 -16 0 -34 -18 -40 -40z"/> <path d="M5227 7986 c25 -7 33 -22 27 -48 -6 -21 -4 -38 3 -38 12 0 13 -62 5 -226 -1 -20 -11 -31 -22 -24 -12 7 -15 23 -7 34 8 14 4 16 -10 8 -25 -16 -17 -39 35 -99 29 -34 28 -40 -13 -73 l-44 -36 54 -10 c72 -14 85 -3 85 68 0 43 -7 56 -25 46 -20 -11 -20 -8 0 13 14 15 25 44 25 64 0 25 -9 32 -25 22 -19 -11 -20 -8 -3 14 29 38 48 142 23 126 -10 -7 -9 7 3 29 15 28 15 46 2 54 -13 8 -13 25 1 51 19 36 14 39 -65 37 -47 -2 -69 -7 -49 -12z"/> <path d="M5545 7876 c0 -69 -1 -180 -2 -246 -1 -66 -1 -165 -1 -220 1 -55 -1 -190 -2 -300 -4 -249 -4 -250 20 -250 11 0 17 36 14 80 -4 43 3 83 15 88 12 5 13 9 1 10 -17 2 -21 724 -4 900 2 27 -6 52 -18 56 -14 5 -22 -36 -23 -118z"/> <path d="M5801 7695 c1 -168 -4 -330 -11 -360 -14 -53 -12 -55 68 -55 l83 0 -8 -235 c-7 -214 -11 -235 -45 -236 -36 0 -42 -21 -25 -89 5 -21 -7 -29 -38 -25 -51 5 -67 -125 -21 -171 28 -28 64 -32 47 -6 -12 19 44 48 66 34 31 -19 0 -214 -34 -208 -22 5 -31 23 -27 53 7 46 -26 103 -58 103 -30 0 -20 -44 17 -73 33 -26 33 -26 -2 -14 -30 10 -35 3 -30 -45 4 -34 20 -59 37 -61 17 -1 42 -3 57 -5 17 -1 22 -15 14 -35 -7 -19 -1 -41 13 -50 19 -12 17 -16 -9 -17 -19 0 -35 12 -35 26 0 14 -18 25 -40 25 -32 0 -40 -13 -40 -65 0 -47 8 -62 27 -54 17 6 32 -6 39 -31 7 -28 21 -37 42 -29 25 10 32 -2 34 -55 4 -132 8 -146 43 -153 23 -5 35 5 35 30 -1 30 -4 31 -20 6 -22 -35 -24 -28 -24 115 1 47 -8 80 -18 74 -10 -6 -18 3 -18 20 0 46 39 37 59 -14 15 -37 19 -28 20 48 1 76 -6 94 -39 103 -22 6 -40 22 -40 37 1 21 5 20 20 -3 17 -27 19 -27 20 0 1 27 3 27 20 0 16 -24 19 -21 20 15 0 25 -9 45 -20 45 -11 0 -20 45 -20 100 0 55 9 100 20 100 11 0 20 28 20 61 0 34 -7 57 -17 51 -9 -6 -16 2 -16 18 0 16 7 24 16 18 10 -6 17 22 17 61 0 39 -9 71 -20 71 -12 0 -20 90 -20 230 0 140 8 230 20 230 11 0 18 31 15 70 -4 60 -35 105 -35 50 0 -29 -97 -16 -109 15 -6 15 11 34 42 46 45 17 48 24 24 53 -15 19 -17 27 -4 20 16 -9 20 -1 13 26 -6 22 -19 35 -28 29 -27 -17 -22 19 7 50 20 22 20 24 -3 11 -21 -12 -26 -8 -17 14 7 17 4 39 -5 49 -9 9 -10 78 -2 152 14 132 13 135 -33 135 l-46 0 2 -305z"/> <path d="M1103 7667 c-3 -58 6 -99 26 -119 28 -28 31 -28 31 1 0 17 -9 31 -20 31 -11 0 -20 29 -20 65 1 49 5 58 20 35 16 -25 19 -22 20 13 0 90 -53 66 -57 -26z"/> <path d="M749 7442 c8 -13 5 -36 -8 -50 -22 -27 -11 -43 54 -80 16 -9 21 -4 13 17 -7 17 -20 31 -30 31 -10 0 -18 10 -18 21 0 12 10 15 22 8 13 -9 19 0 15 22 -4 20 -20 40 -35 45 -17 6 -22 0 -13 -14z"/> <path d="M180 7400 c17 -11 21 -20 10 -20 -25 0 -26 -100 -2 -138 13 -19 11 -24 -5 -14 -14 9 -23 1 -23 -18 0 -19 9 -27 23 -18 14 9 18 5 9 -8 -11 -18 -16 -241 -8 -404 2 -45 -27 -269 -36 -278 -4 -5 -8 47 -8 116 0 78 -7 120 -20 112 -11 -7 -20 3 -20 22 0 19 -6 29 -13 22 -7 -8 -26 2 -41 21 -34 42 -26 -157 23 -535 41 -321 41 -320 -21 -320 l-52 0 13 -205 c7 -113 21 -308 31 -435 24 -308 47 -1492 30 -1520 -10 -16 -22 -15 -43 2 -25 21 -28 10 -23 -82 4 -74 15 -109 36 -115 27 -7 27 -6 0 13 -25 17 -18 25 37 44 44 15 58 28 42 38 -17 11 -11 20 19 29 23 8 38 22 32 31 -6 10 -2 23 10 30 11 7 20 -2 20 -19 0 -40 38 -40 53 -1 6 16 21 24 34 16 13 -7 7 6 -13 29 -20 22 -29 46 -20 52 10 5 16 54 14 107 -2 53 5 106 15 119 12 15 11 28 -4 37 -12 8 -17 35 -10 62 6 26 5 48 -4 48 -8 0 -16 27 -17 59 -1 33 5 55 13 50 9 -5 7 21 -3 59 -12 43 -12 86 1 118 14 37 12 54 -5 60 -18 6 -19 22 -1 71 13 35 18 63 10 63 -22 0 -21 108 1 135 15 17 14 25 -1 25 -13 0 -20 37 -17 95 3 78 10 94 39 89 19 -3 35 3 35 14 0 11 -18 16 -40 12 -46 -9 -51 10 -15 49 20 21 20 24 0 13 -32 -18 -32 12 0 47 14 15 15 21 3 15 -14 -8 -21 33 -20 127 1 76 -4 139 -12 139 -8 0 -11 27 -7 60 5 37 -1 60 -15 60 -15 0 -12 9 6 22 22 16 24 24 5 31 -16 7 -19 21 -7 44 10 18 16 72 14 119 -3 47 3 91 12 97 10 6 12 28 5 49 -15 48 8 122 33 107 10 -7 14 -19 9 -27 -5 -8 3 -15 18 -15 21 0 22 8 4 36 -12 21 -32 37 -43 37 -12 0 -23 57 -25 135 -8 280 -18 417 -31 438 -7 12 -6 28 2 36 22 23 17 169 -6 155 -11 -6 -9 2 5 19 13 17 19 36 12 44 -16 15 -12 389 4 415 6 10 3 18 -8 18 -11 0 -15 18 -9 40 8 30 1 40 -27 40 -31 -1 -32 -4 -7 -20z m0 -1843 c0 -364 -13 -479 -22 -197 -2 83 -13 182 -23 220 -24 91 -33 220 -14 220 8 0 19 27 26 60 25 124 33 49 33 -303z"/> <path d="M2970 7403 c7 -7 22 -14 32 -15 10 -2 23 -4 29 -5 7 -2 -2 -17 -20 -34 -36 -37 -43 -99 -8 -77 16 10 20 0 11 -32 -6 -26 -3 -64 9 -86 15 -28 15 -35 -1 -25 -12 7 -23 2 -24 -13 -1 -14 -3 -51 -5 -82 -3 -30 4 -66 13 -80 12 -16 14 -13 7 10 -6 19 -3 40 8 47 28 17 23 -79 -5 -107 -19 -19 -19 -24 0 -24 13 0 24 -18 24 -40 0 -22 -9 -40 -21 -40 -11 0 -7 -26 11 -60 28 -54 28 -60 1 -60 -17 0 -31 -8 -31 -18 0 -10 18 -14 40 -8 45 12 49 31 20 86 -14 25 -13 42 1 50 30 19 23 610 -8 612 -13 0 -40 4 -60 8 -20 4 -31 1 -23 -7z"/> <path d="M4699 7380 c-13 -8 -72 -12 -131 -9 -60 3 -103 -3 -97 -13 6 -10 1 -18 -11 -18 -12 0 -16 -10 -8 -23 9 -15 19 -12 32 11 10 18 28 27 39 20 14 -8 12 -19 -6 -30 -21 -14 -20 -17 6 -18 19 0 38 11 44 25 8 20 10 20 11 0 1 -14 16 -25 33 -25 27 0 31 -36 27 -260 l-4 -259 -52 12 c-29 7 -69 21 -89 31 -20 11 -42 14 -48 8 -6 -7 0 -12 14 -12 21 0 20 -7 -2 -35 -24 -32 -24 -32 8 -8 30 24 36 23 48 -6 9 -24 17 -27 27 -11 19 31 90 -4 108 -52 16 -41 12 -46 -49 -53 -34 -3 -48 4 -44 25 9 56 -196 41 -217 -15 -9 -25 -10 -46 -2 -46 8 -1 -4 -10 -26 -19 -39 -17 55 -31 153 -24 58 5 69 -41 58 -251 -12 -233 -11 -245 36 -245 51 0 109 74 75 94 -18 11 -21 30 -11 56 15 36 16 35 18 -10 l2 -50 28 50 c19 35 24 91 16 195 l-11 145 108 2 c59 2 115 2 123 0 8 -1 15 7 15 18 0 11 -8 20 -17 20 -10 0 -23 27 -30 60 -10 48 -25 63 -73 73 -64 13 -70 40 -15 74 44 29 88 -12 104 -97 7 -38 23 -75 35 -83 15 -9 18 -2 10 19 -8 23 -3 29 18 21 19 -8 23 -19 10 -35 -36 -43 8 -83 64 -57 36 16 55 16 72 -1 17 -17 32 -17 61 1 30 18 43 17 62 -6 18 -22 31 -24 51 -7 35 29 49 -5 43 -105 -5 -77 -15 -78 -90 -11 -25 23 -45 30 -45 17 0 -12 -17 -23 -38 -23 -71 0 -119 -120 -69 -170 17 -17 24 -30 18 -30 -7 0 2 -27 19 -61 18 -33 40 -55 51 -49 10 7 13 -2 7 -19 -15 -37 14 -41 51 -6 22 20 24 20 11 -3 -12 -22 -6 -26 26 -17 50 13 67 -19 39 -73 -19 -37 -21 -37 -49 10 -20 33 -25 36 -15 8 7 -22 18 -55 23 -74 6 -18 22 -29 36 -23 21 8 25 -22 18 -137 -10 -186 -9 -277 3 -319 6 -19 1 -40 -11 -47 -16 -10 -16 -21 1 -41 12 -15 17 -45 10 -66 -7 -22 -3 -45 8 -52 13 -8 21 13 21 57 0 38 9 75 20 82 29 18 24 55 -5 38 -14 -8 -8 5 13 29 25 28 29 43 13 43 -18 0 -22 20 -12 72 8 42 5 82 -9 98 -16 19 -16 30 1 41 17 10 16 19 -4 31 -21 14 -22 17 -1 18 15 0 22 8 16 17 -6 10 -16 75 -22 145 -12 128 -12 179 -4 763 3 206 -2 313 -16 308 -11 -5 -18 -18 -15 -30 3 -13 -8 -23 -25 -23 -29 0 -32 -48 -5 -92 7 -12 0 -21 -16 -21 -27 0 -37 20 -31 58 4 25 -54 17 -65 -10 -5 -14 -11 -7 -13 15 -2 35 -5 33 -23 -10 -19 -49 -20 -49 -50 -10 -28 38 -30 38 -24 2 4 -21 -4 -42 -17 -46 -16 -6 -21 9 -15 43 6 29 0 51 -12 51 -12 0 -16 -9 -9 -20 7 -11 4 -20 -7 -20 -11 0 -24 11 -30 25 -6 15 -10 11 -11 -10 -1 -19 -10 -35 -21 -35 -10 0 -15 38 -12 85 4 47 3 74 -3 60 -5 -14 -19 -25 -31 -25 -12 0 -16 6 -9 13 8 7 3 26 -9 41 -18 21 -16 24 10 14 18 -7 33 -2 33 10 0 12 -18 22 -39 22 -27 0 -36 10 -28 30 6 17 0 44 -13 60 -20 24 -16 33 23 49 26 10 35 19 20 20 -22 1 -23 7 -3 31 16 19 42 25 73 17 35 -8 47 -4 43 16 -7 31 -36 56 -66 56 -11 0 -6 -8 10 -19 26 -17 26 -19 -1 -20 -17 0 -42 11 -56 25 -20 20 -29 19 -44 -5 -10 -17 -19 -20 -19 -7 0 27 -88 47 -121 27z m152 -107 c-28 -37 -51 -82 -51 -101 0 -19 -7 -30 -15 -25 -9 5 -15 -57 -15 -139 0 -84 9 -149 20 -149 11 -1 -1 -10 -27 -20 -75 -30 -83 -9 -83 229 0 253 1 255 82 231 42 -12 66 -9 83 12 51 57 55 27 6 -38z m230 -473 c53 -29 28 -83 -31 -68 -25 6 -52 2 -59 -10 -7 -12 -23 -22 -35 -22 -13 0 -12 11 4 30 14 17 17 30 7 31 -16 0 51 59 68 59 4 0 25 -9 46 -20z m234 -21 c5 -23 -12 -32 -64 -33 -75 -2 -87 10 -46 51 32 32 103 21 110 -18z m-675 -319 c0 -69 -8 -100 -26 -100 -15 0 -35 42 -47 100 -20 97 -19 100 26 100 43 0 47 -9 47 -100z m568 -92 c62 -24 39 -107 -28 -102 -46 3 -60 14 -60 46 0 64 25 80 88 56z m107 -98 c-10 -98 -23 -125 -44 -91 -7 11 -3 21 9 21 12 0 17 9 10 20 -7 12 -22 15 -33 8 -12 -7 -6 10 13 39 18 28 28 61 21 72 -8 12 -3 21 10 21 15 0 20 -30 14 -90z"/> <path d="M3860 7361 c-41 -11 -44 -15 -16 -26 19 -7 40 -4 47 6 6 11 22 13 35 5 13 -9 31 -17 39 -18 8 -2 20 -5 25 -8 28 -14 63 -8 87 15 36 35 13 58 -26 26 -21 -18 -47 -20 -86 -7 -30 11 -77 13 -105 7z"/> <path d="M4240 7342 c0 -32 13 -37 80 -34 97 6 112 18 67 54 -19 15 -29 18 -21 5 17 -27 -51 -48 -87 -27 -18 12 -14 19 13 26 32 8 31 10 -7 12 -32 1 -45 -9 -45 -36z"/> <path d="M5260 7367 c-16 -6 -43 -14 -58 -19 -22 -7 -19 -16 13 -39 23 -16 56 -23 74 -17 18 7 31 5 29 -5 -6 -37 3 -69 18 -59 24 15 3 152 -23 150 -13 0 -36 -6 -53 -11z"/> <path d="M5670 7269 c3 -32 12 -75 20 -94 8 -20 4 -48 -9 -63 -12 -16 -15 -33 -6 -39 21 -13 30 -133 10 -133 -9 0 -16 -18 -16 -39 0 -39 0 -39 36 0 37 40 61 199 30 199 -9 0 -7 18 5 40 14 26 15 62 2 105 -12 43 -19 51 -21 25 -2 -36 -5 -35 -30 9 l-27 50 6 -60z"/> <path d="M5805 7129 c-41 -45 -32 -114 13 -99 30 9 41 1 48 -34 5 -25 10 4 11 64 1 69 -4 100 -15 83 -10 -16 -20 -19 -25 -7 -4 12 -17 9 -32 -7z"/> <path d="M4480 7108 c0 -17 9 -25 20 -18 11 7 20 3 20 -8 0 -23 -81 -73 -106 -66 -10 3 -11 -5 -4 -16 9 -15 23 -14 44 3 25 21 35 19 55 -9 33 -44 49 -43 41 1 -4 19 -8 54 -8 78 -2 49 -62 83 -62 35z"/> <path d="M5241 7130 c0 -47 38 -81 57 -52 14 22 20 20 28 -10 8 -31 10 -29 12 9 1 36 -6 44 -31 34 -19 -7 -41 -1 -50 13 -9 14 -16 17 -16 6z"/> <path d="M680 7058 c0 -11 -10 -14 -23 -6 -14 9 -18 5 -9 -9 8 -13 30 -23 48 -23 29 -1 30 -3 4 -20 -23 -15 -15 -19 31 -16 33 2 71 -3 85 -11 32 -20 31 17 -1 41 -51 38 -135 65 -135 44z"/> <path d="M5131 6978 c12 -20 127 -17 140 4 7 11 -20 17 -68 14 -43 -3 -76 -11 -72 -18z"/> <path d="M943 6900 c21 -60 57 -100 57 -62 0 39 -39 122 -58 122 -13 0 -12 -22 1 -60z"/> <path d="M3822 6942 c-16 -10 -40 -14 -54 -9 -30 12 -25 -44 7 -76 18 -18 28 -10 44 30 11 29 25 53 32 53 6 0 6 -9 -1 -20 -7 -11 3 -20 21 -20 29 0 30 -5 6 -34 -23 -29 -23 -32 6 -21 25 9 30 3 22 -26 -7 -28 -22 -36 -52 -29 -71 17 -99 -16 -90 -108 5 -45 1 -82 -7 -82 -9 0 -16 -7 -16 -17 0 -9 20 -14 45 -12 25 2 43 14 40 27 -4 18 5 18 35 2 22 -12 40 -13 40 -3 0 10 -13 24 -30 30 -49 19 -34 43 28 44 39 0 54 -8 48 -25 -6 -14 0 -26 12 -26 12 0 20 -11 17 -25 -3 -16 23 -26 79 -27 47 -1 100 -14 119 -30 30 -24 32 -24 18 0 -13 22 -9 26 17 16 25 -10 33 -5 29 21 -3 19 1 46 10 60 18 30 -32 55 -76 38 -19 -7 -25 -1 -18 18 8 22 -5 29 -52 29 -35 0 -58 -8 -52 -18 12 -19 -48 -50 -65 -32 -6 5 -2 10 9 10 11 0 20 28 20 61 0 42 19 79 57 115 32 30 46 39 33 21 -17 -23 -18 -38 -4 -46 12 -8 21 -32 21 -54 0 -29 9 -38 31 -29 17 6 26 4 20 -6 -12 -20 49 -49 66 -31 7 6 -1 20 -18 30 -25 16 -25 18 1 19 17 0 0 18 -36 40 -67 41 -70 79 -8 81 25 0 20 8 -16 28 -27 15 -56 23 -65 18 -8 -5 -15 2 -16 17 0 16 -8 13 -21 -9 -11 -19 -29 -35 -40 -35 -11 0 -16 7 -10 16 5 9 -16 13 -47 8 -31 -4 -62 2 -70 14 -16 26 -32 27 -69 4z"/> <path d="M5685 6861 c-46 -38 -64 -95 -22 -69 13 8 34 -1 48 -20 21 -29 26 -23 32 47 9 91 5 95 -58 42z"/> <path d="M840 6342 c0 -364 -6 -481 -25 -489 -15 -6 -12 -10 9 -11 31 -2 55 -46 69 -122 12 -71 11 -317 -1 -337 -8 -13 -5 -23 7 -23 30 0 26 -75 -4 -87 -20 -8 -20 -10 0 -11 14 -1 25 -21 25 -43 0 -23 9 -36 20 -29 11 7 20 3 20 -9 0 -11 14 -21 30 -21 39 0 39 80 1 131 -33 43 -39 70 -16 67 57 -9 65 6 22 43 -32 29 -39 45 -22 52 14 6 25 30 25 54 -1 34 -4 37 -19 14 -15 -24 -18 214 -3 304 1 8 25 15 54 15 70 0 52 45 -28 69 l-64 19 -2 211 c0 116 -4 226 -7 243 -4 18 -13 117 -21 220 -8 104 -18 195 -23 203 -37 61 -47 -35 -47 -463z"/> <path d="M629 6565 c14 -317 29 -466 53 -504 18 -28 10 275 -11 469 -4 33 -9 103 -12 156 -3 53 -13 100 -23 106 -9 6 -12 -96 -7 -227z"/> <path d="M1451 6702 c-7 -12 -2 -22 13 -23 16 0 11 -13 -14 -32 -32 -26 -33 -30 -5 -20 34 12 43 -4 37 -67 -3 -24 0 -25 14 -4 10 15 16 50 13 78 -7 62 -39 99 -58 68z"/> <path d="M5529 6651 c5 -51 -2 -71 -26 -78 -31 -8 -31 -9 0 -11 28 -2 32 -26 27 -174 -3 -104 2 -162 12 -145 10 15 18 54 17 87 -1 235 8 350 28 350 24 1 -26 39 -50 40 -8 0 -11 -31 -8 -69z"/> <path d="M4805 6500 c-57 -24 -33 -110 31 -111 23 0 60 -17 83 -38 57 -52 52 -19 -9 53 -45 53 -59 56 -53 12 2 -8 -12 -9 -29 -2 -17 6 -23 17 -13 24 15 10 52 84 39 81 -2 -1 -24 -10 -49 -19z"/> <path d="M4270 6395 c0 -69 9 -106 25 -107 48 -5 50 -8 25 -38 -18 -22 -19 -30 -1 -30 15 0 17 -11 5 -33 -24 -42 -7 -107 27 -107 14 0 40 -6 58 -12 27 -11 32 0 28 60 -3 39 -13 72 -22 72 -9 0 -6 19 6 42 27 51 9 106 -31 91 -16 -6 -34 -3 -41 8 -6 10 7 19 29 19 22 0 45 9 52 20 7 11 -3 15 -24 8 -20 -6 -15 2 12 18 55 33 33 56 -58 58 -33 1 -60 10 -60 19 0 9 -7 17 -15 17 -9 0 -15 -47 -15 -105z"/> <path d="M5658 6403 c15 -10 21 -29 13 -41 -7 -12 -3 -22 10 -22 14 0 18 -14 9 -35 -27 -69 -29 -112 -5 -141 28 -34 38 -84 16 -84 -26 0 -37 -98 -13 -108 12 -5 6 -10 -13 -10 -24 -1 -35 -18 -35 -53 0 -42 5 -46 28 -25 20 19 21 30 5 41 -16 10 -16 14 -1 15 41 0 46 -25 19 -91 -15 -36 -22 -71 -16 -77 6 -7 -2 -12 -20 -12 -25 0 -28 -13 -15 -70 10 -46 8 -70 -5 -70 -12 0 -7 -16 10 -35 23 -25 27 -45 13 -70 -13 -23 -13 -35 0 -35 11 0 18 -18 17 -40 -2 -22 -13 -40 -24 -40 -12 0 -8 -9 8 -19 22 -14 23 -24 5 -46 -18 -22 -17 -37 5 -66 18 -25 21 -50 10 -72 -12 -22 -9 -41 11 -57 25 -21 29 -13 28 53 -1 42 4 108 12 146 32 159 14 821 -23 835 -15 6 -22 18 -16 28 7 10 19 14 27 9 8 -5 15 4 15 20 0 16 -7 29 -16 29 -9 0 -17 10 -17 21 0 12 7 17 15 12 8 -5 15 19 15 54 0 52 -8 64 -50 69 -36 4 -42 1 -22 -13z"/> <path d="M4891 6245 c3 -30 6 -58 7 -62 1 -5 16 3 32 17 25 20 30 19 30 -8 0 -17 -11 -32 -25 -32 -17 -1 -15 -7 5 -20 17 -11 48 -19 70 -19 33 0 35 3 10 19 -20 13 -22 19 -5 20 14 0 25 14 25 30 0 28 -25 39 -67 32 -9 -2 -21 15 -27 37 -16 62 -61 50 -55 -14z"/> <path d="M2840 6201 c17 -11 43 -21 59 -21 16 0 49 -19 73 -42 58 -54 97 -42 52 15 -22 27 -67 48 -124 56 -65 10 -82 8 -60 -8z"/> <path d="M2820 6127 c0 -30 6 -48 13 -41 7 7 29 4 50 -7 29 -16 37 -13 37 10 0 17 -13 31 -30 31 -16 0 -30 14 -30 30 0 17 -9 30 -20 30 -11 0 -20 -24 -20 -53z"/> <path d="M4690 6141 c-6 -11 -2 -39 11 -62 20 -38 18 -40 -16 -22 -34 19 -39 13 -41 -49 -3 -67 3 -74 102 -119 74 -34 125 -75 171 -140 44 -63 75 -89 95 -81 17 7 39 12 49 12 10 0 17 23 14 50 -2 28 -11 50 -20 50 -9 0 -14 -15 -11 -33 3 -18 -4 -36 -16 -40 -12 -5 -23 6 -25 22 -1 17 -4 45 -6 61 -2 17 -16 30 -31 30 -15 0 -32 14 -39 30 -6 17 -23 30 -37 30 -36 0 -52 50 -24 78 16 16 16 22 -1 22 -13 0 -19 14 -12 30 6 17 1 31 -11 33 -12 1 -33 3 -47 5 -14 2 -31 -4 -37 -14 -7 -10 -17 1 -23 24 -6 23 -3 37 7 31 28 -18 21 11 -11 43 -17 17 -33 21 -41 9z"/> <path d="M2727 6064 c8 -12 -2 -30 -21 -41 -28 -16 -30 -27 -11 -66 12 -26 23 -37 24 -25 0 13 23 18 56 12 53 -10 54 -9 20 30 -19 21 -35 49 -35 61 0 13 -10 29 -23 37 -14 8 -18 5 -10 -8z"/> <path d="M3012 6065 c34 -23 77 -110 78 -160 1 -25 8 -45 16 -45 8 0 33 0 57 0 42 0 42 1 7 40 -20 22 -26 40 -14 40 12 0 27 -9 34 -20 7 -11 22 -20 34 -20 12 0 5 20 -15 45 -21 25 -25 34 -9 20 38 -34 60 -32 60 5 0 22 13 27 48 19 26 -7 53 -4 60 7 6 11 -15 23 -48 28 -33 5 -60 1 -60 -9 0 -23 -104 -1 -176 37 -56 29 -111 39 -72 13z"/> <path d="M5520 5775 c-3 -338 -3 -335 -21 -335 -8 0 -13 -21 -12 -47 2 -31 13 -44 29 -38 15 6 22 23 16 38 -6 15 -4 27 5 27 9 0 16 38 16 85 0 47 6 111 14 142 9 32 7 52 -4 45 -10 -6 -17 20 -15 58 2 70 32 101 32 35 1 -28 4 -30 18 -7 26 40 5 82 -35 68 -26 -9 -28 -6 -10 13 17 18 18 42 3 84 -15 42 -14 66 4 87 20 24 19 30 -6 30 -26 0 -31 -42 -34 -285z"/> <path d="M5798 6046 c-59 -14 -48 -156 12 -161 28 -3 50 5 50 16 0 12 -7 17 -15 12 -8 -5 -26 3 -40 18 -27 29 1 60 35 39 11 -7 20 6 20 28 0 45 -16 58 -62 48z"/> <path d="M4484 6016 c-13 -13 -24 -35 -24 -49 0 -17 -22 -21 -72 -13 l-71 12 5 -92 c3 -51 0 -99 -8 -106 -7 -8 2 -26 21 -41 33 -24 32 -27 -10 -39 -49 -14 -58 -38 -22 -60 14 -9 18 -5 9 9 -9 14 -2 23 17 23 17 0 31 -8 31 -18 0 -28 60 -44 94 -25 36 20 38 43 3 65 -15 9 -32 6 -40 -7 -28 -44 -37 -2 -15 63 19 54 17 68 -11 89 -42 30 -21 93 31 93 28 0 38 -14 38 -52 0 -43 5 -49 28 -30 22 18 30 18 36 -1 6 -16 13 -13 22 10 8 21 6 30 -6 23 -11 -7 -20 -3 -20 8 0 11 13 27 28 36 19 10 25 35 18 71 -11 58 -43 70 -82 31z"/> <path d="M4119 5966 c-35 -21 -38 -25 -9 -16 32 10 35 7 15 -13 -35 -35 -31 -57 11 -57 20 0 45 -9 56 -20 13 -13 21 -2 24 32 6 78 -37 111 -97 74z"/> <path d="M5172 5817 c-18 -22 -28 -47 -22 -58 7 -10 -3 -13 -24 -6 -20 8 -30 6 -22 -2 8 -9 4 -35 -9 -59 -12 -23 -21 -64 -18 -92 3 -36 0 -42 -14 -23 -14 22 -21 22 -34 2 -12 -20 -20 -19 -37 5 -37 50 -138 60 -125 12 7 -27 -3 -44 -34 -55 -39 -15 -39 -18 -8 -31 19 -8 35 -27 35 -43 0 -18 17 -27 45 -24 122 12 208 -65 174 -155 -19 -51 -22 -52 -110 -15 -42 17 -94 -64 -60 -93 26 -21 31 -19 31 8 0 17 7 31 15 30 8 -2 20 -1 25 1 60 23 116 15 107 -15 -9 -27 -7 -28 9 -6 12 16 38 23 62 17 24 -7 42 -2 42 11 0 16 6 16 22 0 16 -16 17 -41 4 -79 -17 -54 29 -205 55 -180 5 5 11 -16 13 -48 2 -32 -4 -63 -15 -70 -11 -6 -15 -19 -9 -29 6 -9 2 -39 -9 -67 -13 -36 -12 -53 5 -60 18 -7 18 -10 -1 -11 -37 -3 -30 -42 7 -42 26 0 30 -14 19 -70 -8 -45 -5 -70 9 -70 14 0 19 55 16 160 -3 88 0 162 7 165 7 3 6 47 -2 97 -7 51 -7 112 2 135 10 26 8 43 -5 43 -11 0 -15 8 -9 18 6 10 -3 23 -20 29 -24 10 -26 5 -9 -27 17 -31 15 -40 -6 -40 -49 0 -25 88 28 100 l48 12 -45 38 c-25 22 -45 46 -45 56 0 9 -28 42 -62 73 -54 49 -59 62 -39 99 13 24 22 59 20 78 -8 78 4 122 51 192 72 106 22 182 -58 89z"/> <path d="M5760 5792 c0 -45 5 -47 102 -38 80 8 100 4 93 -17 -6 -15 -20 -25 -31 -22 -12 2 -27 -14 -34 -36 -15 -45 19 -99 61 -99 17 0 30 -32 34 -85 5 -47 10 12 12 130 l3 215 -120 0 c-113 0 -120 -3 -120 -48z"/> <path d="M4502 5698 c-24 -69 5 -100 81 -84 61 12 89 -78 32 -101 -18 -7 -18 -10 3 -11 35 -2 162 76 162 100 0 10 14 18 30 18 17 0 30 8 30 18 0 22 -58 46 -80 32 -9 -6 -12 7 -7 27 15 55 -46 71 -64 17 -14 -43 -14 -43 -22 -3 -14 67 -140 58 -165 -13z"/> <path d="M5799 5475 c-20 -44 -20 -60 3 -88 25 -30 24 -33 -7 -21 -31 11 -35 -1 -35 -99 0 -93 5 -109 32 -99 17 7 71 12 120 12 84 0 88 2 88 60 0 68 -63 86 -96 27 -34 -61 -62 -10 -51 91 15 126 -18 197 -54 117z"/> <path d="M4667 5351 c6 -17 -3 -38 -21 -48 -28 -16 -26 -23 11 -60 24 -24 43 -36 43 -27 0 9 -10 26 -22 38 -28 28 -4 72 28 52 17 -9 17 -4 -1 17 -13 17 -19 37 -11 44 7 7 1 13 -13 13 -14 0 -20 -13 -14 -29z"/> <path d="M4820 5362 c0 -10 -6 -33 -12 -51 -9 -23 -4 -28 20 -19 22 8 32 1 33 -25 1 -29 6 -27 21 12 11 26 15 60 9 75 -11 29 -71 36 -71 8z"/> <path d="M3360 5316 c0 -9 27 -45 60 -79 33 -35 60 -71 60 -80 0 -9 37 19 82 63 46 44 91 80 100 80 10 0 18 8 18 19 0 10 -72 17 -160 15 -88 -1 -160 -10 -160 -18z"/> <path d="M5540 5319 c0 -12 -7 -17 -16 -12 -14 9 -16 -31 -7 -122 8 -69 41 -13 40 65 -2 74 -17 137 -17 69z"/> <path d="M956 5085 c-5 -43 -18 -56 -61 -61 -30 -4 -55 -15 -55 -25 0 -18 29 -27 65 -21 14 2 24 -46 17 -85 -2 -9 15 -10 36 -4 31 10 41 2 48 -43 5 -33 9 -15 11 44 5 186 -44 343 -61 195z"/> <path d="M4448 5116 c-8 -13 -4 -27 9 -32 13 -4 17 -17 10 -29 -8 -12 -4 -15 10 -7 14 9 23 2 23 -17 0 -17 8 -31 18 -31 28 0 2 76 -31 88 -16 7 -24 21 -17 32 7 11 8 20 2 20 -5 0 -16 -11 -24 -24z"/> <path d="M5760 4972 c1 -245 5 -252 125 -245 88 5 102 12 108 52 5 32 -1 42 -20 35 -28 -11 -73 20 -73 50 0 9 23 16 50 16 37 0 50 11 50 40 0 35 -13 40 -100 40 -55 0 -100 9 -100 20 0 11 0 26 0 34 0 7 45 11 100 8 132 -7 153 68 25 88 -183 29 -165 44 -165 -138z"/> <path d="M5528 5077 c-20 -32 -22 -297 -2 -297 9 0 9 -11 1 -25 -9 -14 -17 -134 -18 -267 -2 -133 -9 -251 -15 -262 -7 -11 0 -37 16 -58 26 -34 29 -27 32 82 2 66 5 145 7 175 1 30 -3 55 -10 55 -8 0 -9 22 -4 50 5 27 18 45 27 39 10 -6 18 -2 18 10 0 11 -7 21 -16 21 -20 0 -15 446 5 478 7 12 4 22 -7 22 -11 0 -26 -10 -34 -23z"/> <path d="M4000 4949 c11 -29 20 -75 20 -104 l0 -52 60 57 c69 66 75 90 22 90 -20 0 -48 14 -62 30 -39 47 -61 35 -40 -21z"/> <path d="M4600 4983 c0 -11 -17 -15 -38 -9 -54 14 -68 -24 -40 -103 19 -51 36 -68 67 -65 85 8 120 82 50 104 -31 10 -36 20 -19 40 15 18 15 30 1 39 -12 8 -21 5 -21 -6z"/> <path d="M4812 4825 c-23 -23 -12 -49 17 -38 17 6 34 4 40 -5 13 -22 91 -43 91 -25 -1 44 -40 72 -60 43 -11 -16 -20 -20 -20 -7 0 26 -50 50 -68 32z"/> <path d="M927 4707 c0 -64 -4 -231 -8 -371 -4 -140 0 -261 10 -270 10 -9 12 0 5 19 -14 40 7 46 41 12 17 -17 20 -12 12 20 -7 27 -2 43 13 43 19 0 19 8 -2 32 -26 32 -32 273 -11 495 5 53 4 91 -2 85 -6 -6 -21 3 -34 20 -19 26 -24 9 -24 -85z"/> <path d="M2676 4797 c-17 -45 5 -77 51 -77 25 0 34 7 21 15 -12 8 -31 32 -42 52 -15 28 -23 31 -30 10z"/> <path d="M1553 4733 c-14 -10 -9 -12 13 -5 22 7 31 4 23 -9 -7 -12 -40 -17 -73 -11 -39 6 -54 2 -42 -10 34 -34 169 -28 197 10 24 33 26 33 35 -2 8 -30 10 -29 12 6 2 45 -112 60 -165 21z"/> <path d="M4562 4716 c-1 -18 6 -39 16 -45 10 -6 14 -31 8 -56 -8 -36 -5 -39 12 -15 24 34 24 33 32 -50 2 -33 6 -71 7 -85 2 -14 13 -25 25 -25 12 0 17 11 13 25 -5 14 3 60 18 103 28 80 25 105 -10 84 -10 -7 -15 -29 -9 -50 5 -21 -1 -44 -14 -52 -17 -11 -20 -3 -11 26 7 22 3 46 -8 53 -12 8 -21 31 -21 53 0 22 -8 35 -18 29 -10 -6 -23 0 -29 14 -6 15 -10 12 -11 -9z"/> <path d="M5683 4688 c-15 -17 -22 -36 -15 -42 6 -7 0 -27 -13 -44 -22 -28 -21 -29 8 -6 27 21 35 21 43 0 6 -14 10 8 9 49 -1 41 -2 75 -3 74 -1 0 -14 -14 -29 -31z"/> <path d="M1909 4669 c21 -16 29 -29 17 -29 -12 0 -27 -15 -34 -33 -11 -27 -8 -29 18 -7 19 15 30 17 30 4 0 -12 -9 -27 -21 -35 -14 -9 -14 -21 1 -39 16 -19 16 -30 0 -40 -13 -8 -17 -28 -11 -45 10 -26 7 -26 -19 -5 -26 22 -29 20 -17 -12 12 -32 10 -34 -17 -13 -26 22 -30 18 -25 -23 4 -35 -7 -52 -38 -60 -36 -10 -38 -15 -13 -32 25 -16 24 -19 -8 -20 -21 0 -33 -6 -26 -13 8 -7 2 -27 -11 -44 -20 -24 -20 -28 0 -16 17 10 21 5 12 -17 -6 -17 -17 -27 -23 -21 -6 6 -26 -2 -44 -19 -27 -25 -200 -59 -200 -39 0 32 68 69 84 45 15 -20 17 -20 10 4 -10 36 -77 28 -100 -12 -9 -16 -25 -24 -35 -17 -38 23 -75 -38 -55 -91 10 -27 19 -54 19 -60 0 -5 4 -13 7 -17 4 -4 4 25 -1 64 -5 39 0 76 11 83 11 7 20 -2 20 -20 0 -18 9 -27 21 -19 12 7 84 12 161 11 l140 -1 37 84 c49 115 229 343 304 387 45 26 73 118 31 102 -17 -6 -36 -1 -42 12 -7 13 -7 -4 -1 -39 7 -39 2 -69 -13 -78 -15 -9 -19 -7 -11 7 8 11 5 27 -7 34 -11 7 -21 1 -21 -14 -1 -14 -9 -8 -17 14 -16 39 -17 39 -30 -5 -8 -25 -30 -45 -48 -44 -31 0 -30 3 2 28 24 17 29 32 15 40 -12 8 -16 23 -9 35 13 21 -26 56 -62 55 -11 0 -3 -13 19 -30z"/> <path d="M1406 4550 c2 -33 -9 -72 -26 -86 -25 -22 -23 -23 16 -4 25 12 40 31 33 41 -6 10 0 19 15 19 18 1 19 5 4 15 -12 8 -28 29 -34 45 -7 17 -11 3 -8 -30z"/> <path d="M1574 4586 c-30 -8 -32 -14 -10 -41 23 -28 21 -29 -21 -6 -26 14 -42 16 -35 5 7 -11 1 -25 -13 -29 -14 -5 2 -10 35 -10 33 0 70 7 82 17 16 13 21 3 17 -32 -3 -28 2 -45 12 -39 9 5 12 25 5 43 -10 25 -5 30 21 20 18 -7 33 -4 33 7 0 10 -14 19 -31 19 -17 0 -26 9 -19 20 7 12 -2 14 -22 6 -24 -9 -30 -5 -20 11 8 12 12 22 8 21 -3 -2 -22 -7 -42 -12z"/> <path d="M2189 4578 c-10 -16 -7 -19 11 -8 20 12 23 4 13 -36 -15 -57 7 -86 117 -154 43 -27 119 -118 199 -238 147 -223 210 -292 162 -177 -105 251 -459 683 -502 613z"/> <path d="M5747 4267 c4 -185 14 -363 23 -395 10 -36 9 -53 -4 -46 -11 7 -19 -48 -20 -142 0 -108 5 -139 17 -104 17 52 13 23 -16 -125 -10 -46 -5 -55 32 -55 24 0 70 -14 102 -31 34 -17 59 -21 59 -10 0 12 -7 21 -15 21 -8 0 -14 34 -13 77 1 42 -6 134 -15 205 -10 70 -21 164 -26 208 -4 44 -8 88 -9 97 -1 10 -24 12 -52 5 -30 -8 -50 -4 -50 9 0 12 9 16 20 9 11 -7 20 7 20 31 0 37 5 40 30 19 24 -20 30 -19 30 4 0 54 -42 366 -54 396 -6 17 -12 56 -14 88 -1 32 -13 62 -27 67 -20 7 -24 -63 -18 -328z"/> <path d="M5828 4547 c7 -31 18 -97 24 -145 6 -49 20 -110 30 -137 10 -27 14 -55 10 -63 -18 -28 28 -310 53 -326 18 -11 19 -20 3 -31 -20 -14 12 -487 40 -585 4 -16 8 220 8 525 0 318 -8 560 -18 566 -10 7 -14 19 -8 29 13 22 -10 82 -28 71 -8 -5 -27 0 -43 10 -22 14 -16 18 24 19 30 0 58 -11 64 -25 5 -14 11 5 11 42 2 53 -5 65 -29 55 -17 -6 -59 3 -93 20 l-61 32 13 -57z"/> <path d="M4310 4508 c-7 -43 -16 -98 -22 -123 -6 -34 0 -45 28 -45 86 0 109 92 45 188 l-38 58 -13 -78z"/> <path d="M4592 4301 c-8 -63 -29 -120 -48 -136 -19 -15 -23 -22 -9 -15 16 8 26 -3 28 -29 1 -22 4 -50 7 -61 3 -11 7 -45 10 -75 2 -30 17 35 33 145 18 124 22 214 11 239 -14 32 -21 18 -32 -68z"/> <path d="M3720 4239 c0 -10 10 -19 22 -19 15 0 16 -9 4 -25 -37 -50 -27 -128 19 -151 25 -12 34 -22 20 -23 -14 0 -25 -10 -25 -20 0 -11 14 -15 30 -8 22 8 27 2 18 -21 -8 -20 10 -62 44 -106 32 -43 59 -63 64 -48 4 13 -9 38 -29 55 -20 16 -27 25 -14 18 16 -7 20 4 12 34 -8 37 -6 40 16 20 15 -14 36 -25 47 -25 22 0 -50 58 -73 59 -8 1 -15 -14 -15 -32 0 -19 -7 -27 -15 -19 -8 9 -15 42 -15 74 0 32 7 58 15 58 26 0 6 49 -25 64 -22 9 -17 14 15 15 25 0 46 -8 48 -19 1 -11 3 -28 5 -38 1 -10 8 -25 16 -33 8 -8 11 7 6 33 -14 73 -190 218 -190 157z m74 -79 c-6 -22 -2 -45 8 -51 29 -18 21 -46 -11 -41 -48 7 -59 29 -31 62 18 22 19 30 1 30 -13 0 -18 9 -11 20 22 36 55 21 44 -20z"/> <path d="M5251 4196 c-17 -25 -31 -36 -31 -25 -1 24 -39 -34 -40 -59 0 -10 16 -3 37 15 20 18 49 33 65 33 24 1 24 3 0 18 -22 14 -20 19 10 25 26 5 30 13 14 23 -14 9 -36 -4 -55 -30z"/> <path d="M4333 4187 c-30 -31 -14 -106 21 -93 21 8 25 16 10 21 -13 5 -24 23 -24 42 1 28 3 29 20 3 17 -26 19 -25 20 5 0 36 -22 46 -47 22z"/> <path d="M573 4111 c-6 -16 7 -32 33 -39 44 -13 44 -13 -6 -42 l-50 -29 55 0 c45 -1 54 7 51 47 -5 57 -67 105 -83 63z"/> <path d="M4099 4095 c-2 -8 -5 -22 -7 -30 -6 -32 -36 -65 -50 -56 -9 5 -33 -4 -54 -20 -33 -25 -33 -27 -3 -17 24 8 35 2 35 -20 0 -18 -7 -32 -15 -32 -8 0 -15 -26 -15 -58 0 -40 7 -53 22 -41 14 12 20 4 17 -26 -2 -25 11 -62 29 -82 17 -21 30 -41 27 -45 -15 -24 -1 -48 20 -35 19 11 20 8 2 -14 -25 -31 5 -199 35 -199 8 0 10 -18 4 -39 -21 -81 252 -69 353 15 40 34 39 137 -1 113 -10 -6 -18 -2 -18 9 0 14 -17 15 -51 2 -34 -13 -47 -13 -39 0 7 11 -6 20 -29 20 -22 0 -41 -10 -41 -21 0 -12 8 -16 18 -10 10 6 23 -2 29 -18 6 -17 4 -34 -4 -39 -25 -16 -185 89 -171 112 7 11 1 29 -14 40 -22 15 -20 17 6 9 61 -20 57 20 -7 77 -48 43 -56 58 -34 72 16 10 18 18 4 18 -22 0 -54 73 -48 108 2 10 -9 9 -24 -4 -21 -17 -27 -11 -29 32 -2 30 2 42 7 28 9 -21 17 -21 43 0 24 20 28 20 17 1 -10 -16 -3 -25 19 -25 31 0 30 6 -8 46 -32 34 -38 52 -22 68 13 13 18 35 12 49 -6 15 -13 20 -15 12z"/> <path d="M4340 4017 c0 -25 12 -32 45 -26 44 8 44 7 -5 -33 -46 -38 -47 -40 -7 -28 37 10 42 5 32 -32 -8 -31 -4 -40 12 -30 14 9 23 0 23 -25 0 -25 22 -50 59 -66 32 -14 54 -32 49 -40 -5 -8 2 -21 15 -29 30 -19 6 112 -26 141 -16 15 -19 14 -10 -3 8 -13 3 -30 -10 -38 -14 -8 -18 -6 -10 8 8 11 4 27 -9 35 -16 10 -14 19 5 32 21 13 16 20 -18 29 -31 9 -45 28 -45 62 0 37 -8 47 -30 39 -16 -7 -30 -4 -30 6 0 10 11 22 25 27 14 6 5 9 -20 8 -28 -2 -45 -15 -45 -37z"/> <path d="M4920 4044 c0 -12 -16 -19 -36 -15 -23 5 -35 -5 -35 -29 0 -32 4 -33 38 -10 20 15 52 22 70 17 20 -7 25 -4 13 6 -11 10 -27 26 -35 36 -9 10 -15 8 -15 -5z"/> <path d="M5510 4020 c-7 -11 -5 -20 4 -20 9 0 3 -9 -14 -20 -26 -16 -26 -23 3 -52 31 -30 33 -27 33 40 0 75 -5 86 -26 52z"/> <path d="M1583 3968 c-30 -66 -29 -89 5 -76 15 6 34 1 41 -11 7 -11 21 -21 30 -21 27 0 41 85 19 118 -16 26 -17 23 -8 -11 14 -53 -17 -76 -65 -49 -19 12 -25 21 -12 21 28 1 51 56 29 70 -9 5 -26 -13 -39 -41z"/> <path d="M1846 4007 c8 -7 4 -25 -8 -39 -17 -21 -12 -25 19 -19 36 7 39 3 22 -43 -14 -35 -13 -59 3 -79 34 -41 49 -15 16 28 -25 31 -24 32 3 11 19 -15 41 -17 59 -6 15 9 34 14 41 10 7 -5 12 4 12 20 0 16 -7 24 -15 19 -9 -6 -25 6 -36 26 -12 19 -21 26 -21 16 -1 -11 -15 0 -32 25 -17 24 -41 44 -53 44 -13 0 -17 -6 -10 -13z"/> <path d="M1940 3980 c28 -21 68 -35 90 -30 22 5 29 5 16 -1 -13 -7 -19 -24 -13 -40 6 -16 18 -24 27 -19 32 20 69 -50 40 -76 -20 -19 -23 -19 -12 1 8 14 7 26 -2 27 -9 1 -35 3 -57 6 -23 3 -54 -9 -69 -25 -25 -27 -24 -29 4 -18 43 16 156 -26 156 -59 0 -35 70 -68 114 -54 23 8 28 6 12 -6 -14 -10 -17 -28 -8 -43 13 -21 19 -20 29 5 6 18 22 32 34 32 12 0 16 -9 9 -20 -7 -11 -1 -20 14 -20 16 0 18 -6 6 -15 -33 -25 -32 -65 1 -52 17 7 42 -1 55 -18 27 -34 214 -101 232 -84 11 11 -110 127 -136 131 -50 6 -88 17 -99 30 -7 8 3 9 22 2 121 -44 -59 126 -211 198 -51 24 -66 43 -59 70 5 21 0 38 -12 38 -12 0 -16 -15 -9 -33 9 -24 5 -29 -12 -18 -14 9 -21 31 -16 50 5 20 -7 45 -28 58 -47 29 -64 29 -47 1 10 -16 3 -16 -27 0 -68 36 -98 24 -44 -18z"/> <path d="M2400 3939 c0 -12 -9 -16 -20 -9 -11 7 -20 3 -20 -9 0 -11 10 -21 21 -21 12 0 16 -9 9 -20 -7 -11 6 -20 29 -20 22 0 42 -9 44 -20 1 -11 3 -28 5 -38 5 -38 24 -39 27 -1 1 22 -14 50 -34 63 -21 13 -32 37 -26 59 5 20 0 37 -13 37 -12 0 -22 -10 -22 -21z"/> <path d="M4911 3942 c-6 -9 3 -29 19 -42 17 -14 30 -18 30 -10 0 8 23 0 50 -18 28 -18 50 -25 50 -15 0 21 -55 50 -100 53 -16 1 -28 13 -25 26 6 28 -8 32 -24 6z"/> <path d="M4800 3900 c-23 -43 24 -62 50 -20 7 12 23 14 36 6 14 -8 12 1 -3 20 -36 44 -57 43 -83 -6z"/> <path d="M2480 3911 c0 -29 56 -126 90 -158 22 -20 29 -30 15 -23 -14 7 -25 4 -25 -7 0 -10 14 -24 30 -30 17 -7 30 -24 30 -38 0 -15 18 -62 40 -105 22 -43 40 -92 41 -109 0 -17 13 -48 30 -70 38 -51 38 -99 -1 -84 -72 28 -27 -67 104 -219 24 -29 59 -98 78 -155 19 -57 56 -130 83 -162 39 -47 47 -75 39 -134 -10 -78 46 -166 75 -118 7 11 6 21 -3 21 -9 0 -2 9 14 20 17 11 56 15 87 8 48 -10 55 -6 49 25 -5 20 -18 35 -30 33 -13 -3 -17 12 -12 35 8 30 3 37 -22 27 -19 -7 -33 -2 -34 15 -2 15 -5 59 -8 99 -3 39 -17 93 -32 120 -14 26 -24 58 -22 70 8 40 -50 74 -63 37 -8 -20 -5 -26 10 -17 15 9 18 5 8 -10 -8 -14 -30 -20 -48 -14 -18 6 -13 -3 12 -21 25 -17 45 -47 44 -64 0 -27 -6 -26 -31 7 -17 22 -37 38 -45 36 -8 -2 -16 19 -19 47 -2 28 5 44 16 37 11 -7 20 2 20 19 0 17 -9 31 -20 31 -12 0 -12 19 1 52 17 45 15 51 -12 40 -18 -6 -37 -12 -42 -12 -5 0 -5 -7 1 -17 6 -9 -3 -16 -19 -16 -38 0 -37 51 1 93 26 29 24 32 -30 28 -33 -2 -60 3 -60 13 0 23 75 44 105 29 14 -7 9 0 -10 15 -19 16 -29 34 -23 40 6 6 -6 10 -26 8 -26 -2 -35 9 -31 43 3 32 -3 42 -20 32 -20 -11 -20 -8 0 13 30 32 33 67 5 49 -11 -7 -14 1 -8 19 7 17 2 45 -11 60 -14 16 -19 39 -12 50 8 12 4 21 -8 21 -11 0 -21 11 -21 24 0 73 -85 192 -167 232 -88 44 -113 52 -113 35z"/> <path d="M3393 3755 c35 -118 37 -121 76 -127 17 -2 24 7 17 26 -10 24 -15 25 -30 3 -13 -19 -16 -10 -10 27 4 30 2 51 -7 46 -8 -6 -21 22 -28 60 -7 39 -21 70 -31 70 -10 0 -4 -47 13 -105z"/> <path d="M560 3782 c0 -12 9 -22 21 -22 13 0 13 -14 -2 -42 -20 -38 -18 -41 24 -27 60 18 74 32 42 43 -14 5 -19 20 -12 33 7 13 6 16 -3 8 -9 -8 -28 -5 -43 8 -20 16 -27 16 -27 -1z"/> <path d="M1699 3768 c-31 -37 -9 -61 27 -31 15 12 34 17 41 9 7 -7 13 -3 13 9 0 35 -56 44 -81 13z"/> <path d="M1813 3787 c-7 -8 -12 -37 -12 -65 2 -47 3 -48 19 -12 17 40 17 40 19 0 2 -39 3 -39 25 -1 17 29 17 41 -1 47 -13 4 -18 16 -12 26 13 21 -18 25 -38 5z"/> <path d="M5491 3782 c-6 -11 -2 -25 9 -32 13 -8 14 -25 0 -50 -14 -25 -13 -42 0 -50 11 -7 15 -21 9 -31 -6 -11 2 -19 18 -19 23 0 27 13 15 55 -9 30 -14 71 -11 90 6 40 -22 65 -40 37z"/> <path d="M4300 3762 c0 -10 14 -23 32 -30 18 -7 27 -25 21 -41 -10 -26 143 -122 163 -102 12 12 -36 91 -56 91 -10 0 -35 17 -54 37 -42 42 -106 70 -106 45z"/> <path d="M208 3580 c1 -72 10 -120 23 -120 12 0 21 32 20 71 -1 39 4 81 11 93 12 19 -23 76 -47 76 -4 0 -7 -54 -7 -120z"/> <path d="M472 3604 c-5 -9 -6 -115 -2 -235 4 -121 8 -244 8 -275 2 -74 58 -27 58 48 0 26 6 70 15 96 11 33 8 44 -7 35 -14 -9 -19 0 -14 25 4 21 -5 43 -19 49 -20 7 -24 43 -16 142 10 121 3 156 -23 115z"/> <path d="M2017 3519 c28 -12 43 -30 36 -47 -6 -18 2 -26 23 -23 19 3 53 -7 76 -22 22 -15 46 -23 51 -17 6 6 89 -21 184 -59 95 -39 186 -65 203 -58 16 6 30 2 30 -10 0 -12 15 -16 32 -9 27 10 25 16 -14 37 -25 14 -58 20 -72 15 -14 -6 -31 4 -38 22 -7 18 -25 32 -40 32 -16 0 -44 9 -63 19 -74 40 -305 103 -328 89 -13 -8 -18 -6 -10 7 7 11 -8 26 -32 32 -68 19 -91 13 -38 -8z"/> <path d="M1871 3405 c-7 -17 -2 -41 11 -53 18 -16 20 -14 9 8 -7 17 1 12 20 -10 24 -29 36 -33 43 -14 8 20 15 19 33 -6 13 -17 55 -36 93 -41 411 -57 394 -55 367 -28 -12 12 -61 24 -109 27 -98 7 -359 82 -377 108 -24 36 -78 41 -90 9z"/> <path d="M621 3380 c-16 -9 -31 -40 -32 -68 -2 -28 5 -46 14 -40 9 6 17 -1 17 -16 0 -14 14 0 30 31 34 65 16 121 -29 93z"/> <path d="M5620 3356 c0 -7 9 -19 20 -26 12 -7 15 -21 9 -31 -6 -11 -3 -19 8 -19 11 0 34 -6 52 -12 26 -10 31 0 27 49 -4 55 -116 94 -116 39z"/> <path d="M5820 3192 c0 -182 10 -197 108 -160 45 17 42 185 -4 238 -98 113 -104 109 -104 -78z"/> <path d="M215 3325 c-6 -13 -5 -212 3 -500 1 -36 10 -65 19 -65 9 0 16 131 16 290 0 253 -11 330 -38 275z"/> <path d="M4885 3239 c-25 -10 -45 -27 -45 -38 0 -32 -54 -25 -67 9 -23 59 -58 31 -49 -40 4 -38 2 -70 -5 -70 -24 0 -12 -58 14 -69 27 -10 31 0 35 79 1 29 16 40 52 40 28 0 56 8 63 18 14 20 62 -4 49 -24 -4 -8 13 -14 40 -14 57 0 56 -1 17 39 -29 28 -29 31 0 31 17 0 31 9 31 19 0 11 16 15 35 8 30 -9 30 -7 5 11 -36 26 -113 26 -175 1z"/> <path d="M1876 3229 c-26 -26 30 -84 72 -75 35 8 37 6 12 -14 -27 -20 -27 -22 0 -14 17 5 28 19 25 32 -3 12 9 22 25 22 17 0 30 9 30 20 0 28 -47 25 -76 -4 -19 -19 -24 -18 -24 1 0 14 -8 20 -18 14 -10 -6 -22 -2 -26 10 -4 12 -13 15 -20 8z"/> <path d="M2068 3187 c7 -16 12 -40 12 -51 0 -11 23 -5 52 13 28 19 57 29 63 23 6 -7 -1 -12 -15 -12 -18 0 -15 -9 10 -27 48 -35 101 -21 105 28 2 32 -4 36 -35 19 -20 -11 -40 -12 -43 -3 -4 9 -42 22 -84 29 -63 10 -75 7 -65 -19z"/> <path d="M4304 3131 c3 -84 35 -118 39 -42 2 28 4 62 5 74 1 13 -9 27 -22 32 -17 5 -24 -15 -22 -64z"/> <path d="M2500 3141 c0 -22 58 -68 93 -73 15 -3 87 -60 160 -128 72 -67 136 -118 142 -111 17 16 -121 211 -150 211 -14 0 -25 14 -25 30 0 17 -7 28 -15 26 -8 -3 -34 6 -57 19 -55 30 -148 47 -148 26z"/> <path d="M5480 3141 c0 -10 9 -24 20 -31 11 -7 20 -26 20 -42 0 -18 -10 -24 -23 -16 -16 10 -20 3 -10 -20 9 -26 4 -33 -20 -28 -18 3 -36 23 -39 44 -3 20 -16 47 -29 60 -19 17 -20 13 -4 -16 29 -54 -14 -101 -49 -54 -14 17 -25 22 -25 10 -2 -43 70 -86 130 -78 32 4 69 8 82 9 24 1 24 8 -1 116 -14 59 -52 93 -52 46z"/> <path d="M5624 3104 c-14 -19 -19 -21 -12 -6 9 18 6 23 -8 15 -12 -8 -18 -32 -14 -53 4 -22 -3 -40 -15 -40 -15 0 -16 -7 -4 -19 37 -36 190 -1 169 39 -10 19 -14 40 -9 47 5 7 3 8 -4 3 -8 -6 -28 3 -46 19 -28 26 -35 25 -57 -5z"/> <path d="M2370 3100 c5 -8 -4 -27 -20 -40 -38 -31 -39 -62 -2 -48 17 7 34 -5 41 -29 9 -27 26 -38 52 -33 22 4 36 1 30 -8 -5 -9 26 -33 70 -53 50 -22 77 -46 71 -62 -6 -15 -4 -26 4 -24 8 1 19 0 24 -2 40 -16 82 -14 93 4 8 12 4 15 -10 7 -14 -9 -23 -2 -23 17 0 17 -27 48 -60 68 -33 20 -55 42 -49 48 7 6 -25 31 -69 56 -44 25 -77 51 -73 58 4 6 -14 22 -41 34 -26 13 -44 16 -38 7z"/> <path d="M1752 3045 c45 -30 68 -97 42 -125 -16 -17 -16 -22 -1 -13 24 14 56 -76 38 -106 -6 -9 4 -22 22 -29 18 -7 28 -18 22 -24 -6 -6 -4 -35 3 -64 11 -39 5 -62 -20 -84 -31 -26 -32 -42 -12 -125 23 -93 55 -117 65 -49 3 19 -2 30 -11 24 -20 -12 -44 47 -29 72 6 10 2 18 -10 18 -11 0 -21 10 -21 21 0 12 10 15 23 7 15 -9 18 -5 7 12 -10 17 -6 22 12 16 15 -5 29 -18 29 -28 5 -68 36 -190 51 -199 10 -7 14 -20 8 -29 -6 -9 -2 -23 10 -30 11 -7 20 -52 20 -101 0 -49 9 -89 21 -89 12 0 16 8 10 19 -7 10 3 27 21 37 26 14 28 26 10 59 -16 32 -16 44 3 52 16 6 10 15 -16 23 -22 7 -42 31 -44 54 -1 22 -17 98 -35 169 -18 70 -26 138 -18 150 9 15 5 18 -12 7 -19 -12 -23 -3 -16 37 10 50 -4 63 -52 54 -10 -2 -8 10 6 26 16 20 17 34 3 43 -12 7 -16 21 -10 31 6 11 2 19 -10 19 -11 0 -20 7 -18 15 10 58 -32 145 -70 145 -25 0 -34 -7 -21 -15z"/> <path d="M5850 2995 c-521 -69 -1003 -170 -849 -177 32 -2 37 -6 15 -12 -19 -5 -52 1 -73 12 -41 22 -223 0 -325 -40 -28 -11 -89 -24 -135 -28 -46 -5 -100 -18 -121 -29 -44 -24 -227 -5 -210 22 6 9 0 17 -13 17 -32 0 -7 -93 41 -154 20 -26 43 -74 50 -107 12 -55 19 -59 109 -59 65 0 112 -13 146 -40 62 -48 87 -49 228 -8 148 43 202 19 268 -116 66 -137 65 -136 41 -136 -12 0 -27 23 -34 50 -7 28 -21 50 -33 50 -11 0 -15 -18 -9 -40 6 -22 3 -40 -6 -40 -9 0 -30 -5 -46 -11 -17 -7 -63 17 -107 54 -55 47 -64 51 -31 14 l46 -52 -76 -30 c-50 -20 -91 -25 -121 -13 -36 13 -45 10 -47 -17 -1 -19 -4 -55 -6 -80 -5 -40 3 -45 80 -45 105 0 148 -16 148 -53 0 -16 -8 -24 -18 -18 -9 6 -76 12 -147 13 l-130 3 26 84 c14 48 18 96 9 112 -10 15 -9 42 1 60 10 19 12 40 4 47 -7 7 -16 31 -19 54 -16 103 -43 123 -94 68 -26 -27 -59 -50 -74 -50 -22 -1 -22 -5 2 -20 17 -11 20 -20 8 -20 -39 0 -21 -107 22 -130 22 -12 42 -32 45 -46 6 -31 -29 -32 -39 -1 -9 26 -136 39 -136 14 0 -15 33 -24 91 -23 11 0 31 -11 44 -26 19 -20 10 -23 -50 -16 l-75 10 74 -41 c41 -22 83 -57 94 -76 10 -19 24 -34 30 -32 31 9 92 -21 92 -45 0 -42 -31 -34 -67 17 -24 36 -31 38 -32 12 -1 -43 -38 -56 -96 -35 -25 10 -45 10 -45 3 0 -8 -9 -2 -19 13 -10 17 -47 28 -90 26 -46 -2 -68 5 -60 18 7 11 26 16 41 10 16 -6 28 2 28 17 0 39 -36 59 -66 36 -15 -12 -42 -9 -74 8 -40 21 -43 26 -13 27 30 0 35 10 24 52 -7 28 -5 47 4 41 9 -6 18 9 20 33 2 38 0 40 -21 12 -13 -17 -35 -28 -49 -23 -14 5 -25 -6 -25 -25 0 -18 8 -28 17 -22 9 6 16 -2 16 -18 0 -16 -13 -33 -29 -39 -24 -10 -24 -17 -1 -46 24 -31 23 -32 -6 -10 -23 19 -47 20 -85 6 -71 -27 -66 -9 8 29 79 41 76 79 -5 84 -47 4 -57 0 -35 -14 43 -27 -5 -71 -54 -49 -20 8 -43 16 -52 17 -8 1 -25 16 -36 32 -16 23 -18 18 -8 -20 l13 -50 -43 50 c-33 39 -38 41 -23 9 16 -33 12 -46 -19 -66 -49 -30 -71 -17 -107 64 -17 37 -27 47 -24 23 2 -22 11 -51 20 -65 10 -16 3 -26 -21 -28 -20 -2 -47 -4 -60 -5 -13 -2 -30 -9 -38 -17 -27 -27 -53 -15 -29 13 17 21 17 32 1 42 -13 8 -27 -4 -34 -28 -6 -23 -21 -43 -33 -44 -54 -3 -100 -17 -117 -34 -18 -18 484 -14 669 5 41 4 75 0 75 -9 0 -8 38 -21 85 -28 47 -7 126 -36 175 -65 57 -33 127 -54 190 -58 55 -3 111 -6 125 -7 14 -1 25 -12 25 -24 0 -13 -15 -17 -34 -9 -19 7 -29 7 -22 0 27 -26 -33 -66 -69 -46 -27 14 -35 11 -35 -15 0 -26 -6 -28 -29 -9 -21 17 -39 18 -65 3 -30 -17 -31 -21 -4 -21 22 -1 32 -20 34 -61 l1 -60 -103 108 c-168 174 -236 199 -544 201 -211 1 -260 -4 -260 -27 0 -16 -13 -33 -28 -38 -17 -6 -22 0 -14 13 9 14 3 18 -18 10 -52 -20 -95 -127 -51 -127 11 0 15 13 9 28 -7 17 6 34 30 41 45 15 89 -2 73 -27 -5 -8 4 -15 20 -15 16 0 29 5 29 12 0 7 16 13 35 13 19 0 56 8 83 17 35 11 43 9 32 -9 -11 -17 -3 -20 27 -11 24 8 43 5 43 -6 0 -11 -14 -24 -30 -29 -21 -7 -20 -9 5 -6 22 2 34 19 33 47 -1 34 5 39 25 23 14 -12 35 -15 47 -8 11 7 20 6 18 -4 -13 -75 1 -87 62 -56 46 24 60 25 60 6 1 -19 6 -18 19 3 16 25 23 25 53 0 22 -18 30 -20 21 -4 -24 40 10 29 64 -20 27 -25 42 -31 33 -15 -11 19 -2 17 26 -8 24 -20 38 -45 32 -55 -6 -9 -1 -17 11 -17 11 0 21 -8 21 -17 0 -10 -22 -15 -50 -12 -27 3 -50 -4 -50 -15 0 -11 14 -15 30 -9 17 7 30 4 30 -5 0 -17 -75 -48 -105 -44 -8 1 -20 -21 -27 -48 -7 -28 -22 -45 -35 -38 -13 6 -8 -1 11 -17 22 -19 27 -36 15 -56 -16 -25 -18 -24 -19 3 0 17 -13 31 -29 31 -21 0 -24 -9 -11 -34 26 -47 0 -66 -33 -24 -25 32 -26 32 -15 -5 10 -34 5 -32 -30 10 -27 32 -38 37 -30 15 7 -21 3 -35 -12 -35 -13 0 -19 -13 -13 -29 6 -17 3 -35 -8 -42 -10 -6 -19 4 -19 22 0 22 -11 29 -32 21 -17 -7 -40 -12 -50 -12 -10 0 -18 -31 -18 -70 0 -59 -7 -70 -45 -71 -42 -2 -42 -3 -6 -17 36 -14 35 -17 -14 -26 -30 -6 -49 -3 -44 6 5 8 1 21 -11 28 -11 7 -20 1 -20 -14 -1 -21 -4 -20 -18 1 -12 19 -21 21 -31 5 -8 -13 -24 -17 -35 -9 -13 7 -16 4 -9 -8 7 -11 -1 -32 -17 -45 -24 -20 -30 -19 -30 7 0 27 -10 26 -69 -9 -38 -23 -79 -35 -90 -28 -12 7 -21 7 -21 1 0 -7 23 -21 52 -32 40 -15 47 -26 30 -46 -12 -15 -16 -33 -8 -40 7 -7 4 -13 -7 -13 -11 0 -20 -13 -20 -29 0 -22 9 -24 36 -9 33 17 34 14 17 -33 -25 -65 -25 -88 0 -49 14 22 19 23 20 4 0 -15 9 -21 20 -14 11 7 20 -2 20 -20 0 -18 -9 -27 -20 -20 -11 7 -14 -1 -8 -19 7 -17 21 -26 31 -19 10 6 34 -1 52 -15 18 -15 26 -17 19 -4 -23 39 142 110 188 81 45 -28 51 -63 8 -47 -33 13 -170 -44 -170 -70 0 -8 -18 -11 -41 -7 -22 4 -35 0 -29 -9 5 -10 -1 -21 -15 -26 -14 -5 -36 15 -50 43 l-25 52 13 -50 c20 -81 112 -157 97 -80 -4 22 1 40 11 40 11 0 20 -13 22 -30 3 -37 6 -48 30 -107 l19 -47 51 67 c88 118 91 172 6 108 -65 -49 -106 -37 -49 14 106 95 122 105 107 63 -12 -32 -10 -34 17 -13 17 14 48 24 68 22 71 -6 110 3 98 23 -7 11 -30 20 -51 20 -22 0 -39 9 -39 20 0 11 9 20 20 20 11 0 20 9 20 20 0 12 -23 16 -55 9 -42 -9 -48 -7 -25 9 21 15 22 21 5 22 -21 0 -18 83 3 114 2 2 36 -4 76 -13 56 -12 76 -10 84 11 7 18 -5 29 -34 31 -69 5 -100 10 -149 27 -48 16 -61 49 -20 51 14 1 50 5 80 9 30 4 55 -1 55 -11 0 -11 19 -19 42 -19 24 0 46 -16 52 -39 8 -32 17 -35 56 -17 27 12 42 32 36 48 -6 17 3 28 22 28 18 0 32 7 32 16 0 35 -51 64 -112 64 -132 0 -173 47 -60 68 37 7 79 26 92 43 14 16 32 29 40 29 26 0 37 -75 15 -97 -33 -33 23 -88 74 -73 22 6 50 14 61 16 74 17 146 61 137 85 -8 21 -24 18 -74 -12 -77 -47 -101 -49 -85 -7 10 25 3 30 -28 22 -22 -6 -45 -3 -50 7 -16 25 117 119 169 119 28 0 49 15 55 40 6 22 24 40 40 40 17 0 26 -12 20 -27 -8 -20 4 -24 43 -17 34 7 42 14 23 21 -53 17 -78 67 -49 97 30 30 57 35 40 7 -6 -10 -3 -23 7 -30 14 -8 42 30 42 58 0 27 -95 23 -127 -5 -36 -32 -37 -32 -30 5 4 21 30 44 57 52 28 7 92 42 144 77 52 35 140 77 197 94 86 26 98 35 77 60 -21 25 -30 23 -71 -15 -26 -24 -52 -39 -58 -33 -6 6 10 28 36 49 26 20 54 55 63 77 11 26 20 31 26 15 5 -14 18 -20 28 -14 10 6 18 2 18 -8 0 -11 25 -23 55 -27 34 -4 53 -16 49 -33 -4 -18 6 -24 27 -15 18 6 52 12 76 12 34 1 37 5 14 19 -16 10 -36 14 -45 8 -9 -5 -6 14 7 42 13 28 32 51 41 51 10 0 13 9 6 20 -7 11 -35 20 -62 20 -33 0 -45 8 -36 23 10 16 0 20 -30 12 -37 -10 -40 -7 -21 17 13 15 45 28 71 28 52 0 61 19 25 55 -17 17 -30 15 -51 -6 -53 -53 -151 -25 -156 45 -3 39 138 43 179 4 36 -34 64 -17 209 127 l145 145 -66 27 c-283 114 -258 251 67 353 215 68 217 68 185 -27 -15 -43 -33 -124 -41 -180 -7 -57 -20 -103 -29 -103 -24 0 -142 -123 -130 -136 6 -5 1 -22 -12 -37 -16 -20 -16 -27 1 -27 20 0 30 27 24 65 -1 8 11 15 28 15 17 0 30 -8 30 -19 0 -27 -59 -81 -89 -81 -15 0 -32 -13 -38 -30 -7 -16 -30 -30 -51 -30 -22 0 -47 -12 -56 -27 -9 -15 -36 -38 -61 -51 -25 -13 -45 -33 -45 -45 0 -11 32 -2 71 21 39 23 67 35 62 27 -5 -8 37 -16 94 -17 58 -2 150 -23 209 -48 101 -43 107 -44 144 -10 28 25 56 32 102 23 39 -8 75 -4 94 12 27 22 28 19 7 -20 -32 -59 -21 -57 36 8 33 38 37 50 14 41 -22 -8 -33 -2 -33 18 0 18 10 24 23 16 16 -10 20 3 13 40 -6 29 -3 58 7 64 20 12 65 -88 60 -133 -3 -18 13 -32 36 -33 63 -5 56 110 -9 163 -41 33 -53 66 -63 167 -11 110 -33 164 -57 140 -5 -4 0 -66 10 -137 21 -150 13 -165 -81 -139 -38 10 -119 32 -180 49 l-110 30 7 79 c7 65 26 97 102 168 l93 87 134 -21 c171 -29 172 -30 180 -242 6 -149 7 -134 11 85 l4 265 -49 0 c-75 0 -80 36 -6 46 61 7 60 8 -15 12 -44 2 -102 16 -130 32 -79 45 -96 34 -30 -19 l60 -50 -50 0 c-28 -1 -81 8 -118 18 -37 11 -62 14 -55 7 7 -7 -3 -30 -22 -51 -33 -37 -33 -40 5 -67 37 -28 37 -31 -26 -93 -80 -80 -83 -50 -17 155 41 127 50 140 98 139 28 0 48 7 42 15 -7 13 238 28 298 18 18 -3 17 76 -1 119 -12 25 -35 27 -134 14z m-318 -138 l38 -43 -57 36 c-54 35 -59 35 -120 2 l-63 -35 47 42 c61 53 107 52 155 -2z m-584 -88 c35 -35 5 -109 -44 -109 -14 0 -21 -8 -15 -18 6 -9 -5 -30 -23 -45 -29 -23 -32 -23 -22 4 14 37 -55 90 -75 58 -6 -11 0 -18 14 -14 15 3 29 -17 33 -45 5 -27 1 -43 -7 -35 -9 8 -27 5 -42 -8 -19 -16 -34 -16 -53 0 -20 16 -39 9 -77 -26 l-51 -47 -38 43 c-48 55 -93 155 -76 171 8 7 17 3 21 -8 27 -70 44 -79 84 -43 29 27 43 29 54 11 11 -18 20 -17 37 5 12 16 38 35 57 42 19 8 30 26 24 41 -6 16 2 27 21 27 18 0 27 -11 22 -26 -6 -14 -2 -31 9 -38 10 -6 19 -1 19 11 0 12 9 17 20 10 11 -7 20 1 20 17 0 16 11 34 25 40 14 5 27 11 29 11 2 1 17 -12 34 -29z m558 -611 c-57 -10 -151 -35 -209 -57 -110 -42 -153 -42 -74 1 84 45 205 75 297 74 l90 -1 -104 -17z m-638 -301 c-10 -17 4 -20 49 -11 60 12 63 11 41 -29 -16 -31 -27 -36 -38 -18 -9 15 -32 20 -58 12 -26 -9 -42 -5 -42 9 0 12 -7 18 -16 13 -9 -6 -29 -1 -45 10 -22 15 -15 18 26 11 31 -5 61 -1 67 9 6 9 15 17 20 17 6 0 4 -10 -4 -23z m-638 -517 c0 -19 -23 -32 -65 -36 -68 -7 -82 11 -40 53 33 33 105 21 105 -17z m-601 -441 l61 0 -47 -40 c-32 -26 -57 -33 -78 -22 -16 10 -70 13 -118 8 -106 -12 -120 27 -17 46 39 8 76 22 82 33 8 12 21 11 34 -2 12 -12 49 -22 83 -23z m-80 -97 c6 -10 29 -14 51 -8 45 12 54 -18 15 -50 -56 -46 -131 -50 -144 -6 -21 66 44 119 78 64z"/> <path d="M478 2883 c-7 -64 1 -271 10 -261 5 4 11 26 15 48 4 22 21 46 37 54 25 11 25 13 -3 15 -24 1 -33 20 -33 72 0 67 -21 124 -26 72z"/> <path d="M5 2678 c-6 -76 -5 -78 62 -78 69 0 126 -42 105 -77 -15 -25 71 -40 119 -21 22 8 28 16 14 17 -14 0 -25 11 -25 22 0 12 8 16 18 10 10 -6 23 3 30 20 6 17 3 26 -7 19 -23 -14 -61 53 -61 108 0 26 -10 37 -26 31 -17 -7 -24 -32 -18 -70 5 -35 0 -59 -14 -59 -12 0 -22 13 -22 28 0 18 -14 25 -39 18 -37 -10 -110 38 -90 59 6 5 -2 19 -16 30 -19 17 -26 4 -30 -57z"/> <path d="M3829 2689 c-37 -30 -37 -31 17 -23 40 6 53 1 47 -17 -10 -25 169 26 200 58 30 30 -226 12 -264 -18z"/> <path d="M885 2673 c-50 -25 -77 -73 -39 -72 32 0 83 43 89 74 3 14 3 24 0 23 -3 -2 -25 -13 -50 -25z"/> <path d="M2281 2635 c12 -41 10 -52 -7 -42 -13 8 -11 -1 4 -20 22 -27 32 -29 45 -9 9 14 17 17 17 5 0 -11 19 -22 42 -24 34 -2 37 2 17 27 -20 24 -19 27 8 16 31 -11 42 -35 35 -74 -2 -10 5 -12 16 -5 10 6 23 0 29 -14 5 -14 11 -7 12 15 1 33 5 35 21 10 15 -24 19 -20 20 18 0 26 -16 60 -35 74 -45 34 -92 36 -72 3 10 -17 4 -16 -19 2 -26 21 -41 22 -62 5 -32 -27 -61 21 -31 51 11 11 4 18 -19 18 -31 0 -34 -9 -21 -56z"/> <path d="M2929 2659 c-7 -12 -10 -23 -6 -25 4 -2 27 -15 52 -29 40 -22 45 -21 45 13 0 21 -14 43 -32 50 -41 16 -43 16 -59 -9z"/> <path d="M480 2560 c0 -22 -2 -47 -5 -55 -12 -36 196 -23 245 15 l50 39 -65 -18 c-40 -11 -65 -11 -65 0 0 11 11 19 23 19 13 0 17 7 9 15 -9 8 -28 -3 -44 -24 -20 -27 -28 -30 -28 -10 -1 24 -4 24 -18 2 -12 -19 -21 -21 -31 -5 -8 13 -24 17 -36 9 -14 -9 -17 -2 -9 20 7 18 4 33 -7 33 -10 0 -19 -18 -19 -40z"/> <path d="M4 2495 c4 -45 16 -65 40 -65 18 0 40 -7 48 -15 21 -22 48 -18 48 6 0 12 -10 15 -21 8 -13 -8 -12 3 3 26 37 59 9 105 -63 105 -57 0 -61 -4 -55 -65z"/> <path d="M5703 2520 c0 -27 17 -95 38 -150 38 -99 38 -100 25 -20 -17 115 -63 238 -63 170z"/> <path d="M3228 2497 c-7 -12 1 -31 19 -41 18 -10 33 -31 33 -47 0 -16 9 -29 20 -29 38 0 23 -137 -17 -159 -21 -11 -43 -14 -50 -7 -7 7 -13 3 -13 -8 0 -12 20 -27 45 -33 69 -19 80 -16 67 18 -6 17 -3 26 7 20 15 -10 43 66 51 139 7 63 -134 192 -162 147z"/> <path d="M2650 2455 c-8 -31 -25 -54 -37 -53 -64 8 -78 -1 -53 -33 30 -35 100 11 100 65 0 16 8 23 18 17 9 -6 30 5 45 24 24 31 23 32 -6 9 -27 -21 -35 -21 -43 0 -5 14 -16 1 -24 -29z"/> <path d="M3079 2395 c-27 -36 -47 -69 -46 -75 22 -105 24 -140 7 -130 -30 18 -60 -7 -47 -39 14 -39 57 -19 84 41 29 64 29 74 -2 55 -18 -11 -18 -6 1 18 15 18 42 28 60 22 28 -9 29 -7 5 10 -19 13 -38 14 -53 1 -16 -13 -27 -9 -35 11 -9 24 3 31 48 31 54 0 70 62 30 115 -2 2 -26 -25 -52 -60z"/> <path d="M3422 2454 c83 -65 134 -89 159 -74 22 14 11 26 -46 49 -65 27 -137 43 -113 25z"/> <path d="M1165 2393 c-25 -12 -45 -29 -45 -38 0 -8 -12 -15 -28 -15 -15 0 -37 -12 -49 -27 -23 -27 167 -14 214 15 11 7 26 4 33 -8 7 -12 122 -20 285 -20 149 0 266 6 259 13 -7 7 -91 14 -187 16 -112 2 -177 11 -182 26 -5 14 9 20 34 15 23 -4 37 0 31 9 -17 29 -80 9 -77 -25 1 -22 -13 -29 -50 -24 -29 4 -61 8 -70 9 -10 0 -12 15 -5 32 6 17 3 26 -7 20 -9 -6 -21 0 -26 14 -6 18 -18 15 -44 -11 -20 -20 -41 -30 -48 -24 -6 7 1 21 18 31 40 25 0 19 -56 -8z"/> <path d="M2901 2394 c0 -20 -10 -31 -22 -23 -54 33 -134 -106 -82 -143 28 -21 27 -26 -2 -56 -19 -19 -28 -47 -21 -66 12 -29 15 -29 28 5 13 33 15 33 17 5 0 -18 9 -39 19 -45 10 -6 13 8 7 32 -7 27 -4 38 10 30 12 -8 20 7 18 37 -2 27 -14 54 -28 59 -14 5 -25 21 -25 35 0 16 6 18 15 6 25 -33 65 -32 65 1 0 17 -9 26 -20 19 -11 -7 -14 1 -7 20 10 28 14 28 36 -2 20 -27 28 -29 41 -8 11 19 8 21 -10 10 -19 -11 -23 -8 -16 12 6 15 3 46 -5 68 -14 35 -16 36 -18 4z"/> <path d="M1887 2315 c7 -25 13 -56 13 -70 0 -41 31 -28 35 15 1 22 -6 40 -16 40 -10 0 -13 14 -6 30 6 17 0 30 -13 30 -16 0 -20 -16 -13 -45z"/> <path d="M3495 2245 c8 -22 1 -26 -30 -16 -35 11 -40 6 -31 -30 9 -32 16 -36 28 -16 14 21 17 21 18 -4 0 -22 17 -30 59 -27 42 3 55 -4 47 -24 -6 -17 3 -28 21 -28 26 0 28 10 12 52 -10 28 -15 59 -9 68 5 9 -9 11 -33 5 -27 -7 -38 -4 -30 10 7 11 -5 25 -26 30 -28 8 -35 2 -26 -20z"/> <path d="M986 2231 c4 -12 31 -24 60 -27 42 -5 51 0 42 24 -13 34 -113 37 -102 3z"/> <path d="M1257 2239 c29 -12 43 -30 36 -48 -7 -19 2 -27 28 -25 41 3 55 34 16 34 -31 0 -4 27 31 32 15 2 39 -17 52 -43 14 -26 37 -41 53 -35 15 6 27 2 27 -9 0 -10 14 -18 30 -18 17 0 30 7 30 16 0 10 -13 17 -30 17 -16 0 -30 8 -30 19 0 27 77 17 89 -13 11 -29 180 14 224 59 23 22 17 27 -32 31 -38 3 -66 -8 -79 -31 -20 -33 -21 -33 -21 0 -1 38 -89 50 -111 15 -7 -11 -23 -20 -36 -20 -14 0 -12 8 6 20 23 15 16 19 -30 19 -46 0 -53 -4 -30 -19 18 -12 20 -20 6 -20 -13 0 -29 9 -36 20 -7 11 -64 19 -126 19 -92 -1 -105 -5 -67 -20z"/> <path d="M2254 2214 c-27 -41 -25 -44 25 -46 38 -1 52 8 52 35 0 54 -44 61 -77 11z"/> <path d="M940 2199 c-1 -38 -5 -42 -19 -20 -15 24 -30 18 -80 -35 -34 -35 -74 -64 -90 -64 -30 0 -57 -32 -64 -77 -3 -18 9 -15 36 9 34 31 42 32 58 7 15 -23 18 -24 19 -2 0 23 6 23 31 2 17 -14 29 -17 26 -7 -17 66 27 147 70 125 23 -12 36 -15 28 -7 -8 9 -4 29 8 44 18 21 18 33 0 51 -17 17 -23 11 -23 -26z"/> <path d="M2049 2125 c-28 -64 -26 -85 8 -87 21 -1 24 -5 8 -11 -56 -23 -17 -37 117 -43 82 -3 137 2 130 12 -6 10 -36 16 -67 12 -62 -7 -126 7 -121 28 15 73 -49 149 -75 89z"/> <path d="M3880 2130 c0 -16 4 -30 8 -30 5 0 22 -5 38 -11 16 -6 34 3 41 21 7 18 4 27 -6 21 -10 -7 -24 -3 -31 9 -19 30 -50 24 -50 -10z"/> <path d="M2320 2119 c0 -12 8 -16 18 -10 10 6 23 -2 29 -18 9 -23 0 -24 -49 -7 -33 11 -66 15 -72 8 -7 -6 3 -12 22 -12 19 0 29 -9 22 -20 -7 -12 -6 -20 4 -18 45 8 64 -5 52 -35 -9 -23 -5 -29 11 -19 13 8 23 3 23 -12 1 -21 4 -20 18 1 12 19 21 21 31 5 7 -12 24 -22 37 -22 16 1 14 7 -4 18 -16 10 -22 32 -15 51 7 18 5 29 -3 23 -9 -5 -33 12 -53 39 -38 51 -71 64 -71 28z"/> <path d="M485 2055 c4 -61 29 -73 48 -23 8 21 17 24 26 9 9 -14 26 -8 51 19 20 22 26 40 13 40 -13 0 -23 -7 -23 -17 0 -23 -87 -17 -105 7 -8 11 -13 -5 -10 -35z"/> <path d="M1073 2072 c-21 -57 51 -86 219 -89 128 -2 161 3 161 26 0 21 -20 28 -71 25 -51 -3 -70 4 -67 22 4 15 -3 21 -15 14 -11 -7 -16 -21 -9 -31 18 -29 -147 -11 -176 20 -20 22 -20 24 3 11 19 -11 23 -9 14 7 -19 31 -45 29 -59 -5z"/> <path d="M4147 2056 c-41 -53 -54 -83 -29 -67 36 22 122 -5 122 -39 0 -34 51 -41 70 -10 7 11 -4 26 -24 34 -20 7 -55 35 -78 61 -33 37 -45 42 -61 21z"/> <path d="M1487 2011 c9 -29 313 -37 313 -9 0 12 -13 17 -29 11 -15 -6 -33 0 -38 13 -7 18 -10 18 -11 -1 -1 -14 -16 -25 -33 -25 -17 0 -27 8 -21 17 6 9 -34 16 -89 15 -54 -1 -96 -11 -92 -21z"/> <path d="M730 1989 c-25 -38 -95 -51 -115 -21 -10 15 -14 14 -15 -4 0 -15 -9 -21 -20 -14 -11 7 -20 -1 -20 -18 0 -19 14 -27 40 -22 53 10 51 -7 -4 -28 -42 -15 -42 -16 10 -26 38 -7 54 -2 54 18 0 16 8 24 17 18 27 -17 103 65 90 98 -14 37 -13 37 -37 -1z"/> <path d="M5071 1962 c-12 -19 98 -122 131 -122 10 0 18 13 18 28 0 40 59 57 73 22 6 -17 29 -30 51 -30 22 0 62 -18 90 -40 l51 -40 -48 -18 -47 -18 56 -22 c31 -12 65 -22 76 -22 11 0 44 -17 74 -37 30 -21 81 -54 114 -74 47 -30 53 -39 25 -45 -31 -6 -32 -11 -3 -54 17 -26 32 -55 32 -64 3 -56 29 -92 42 -58 8 19 0 55 -17 81 -28 43 -27 47 15 58 67 18 76 16 76 -17 0 -16 -7 -30 -15 -30 -8 0 -15 -33 -15 -74 0 -89 -79 -114 -142 -44 -25 27 -39 32 -50 16 -16 -27 -78 -10 -78 21 0 12 16 21 35 22 40 0 1 30 -56 43 -16 3 -38 18 -49 32 -15 19 -34 21 -70 6 -28 -11 -41 -20 -30 -21 11 -1 8 -9 -7 -19 -18 -11 3 -21 65 -31 94 -14 126 -69 72 -123 -14 -14 -6 -38 25 -75 49 -56 95 -43 95 26 0 18 16 5 38 -29 35 -57 -16 -171 -77 -170 -21 1 -101 140 -101 177 0 42 -46 90 -67 69 -7 -7 -13 3 -13 22 0 58 -53 99 -66 51 -14 -53 -74 -51 -74 2 0 33 -9 39 -40 29 -22 -7 -40 -4 -40 6 0 11 -27 30 -60 44 -34 14 -66 33 -72 43 -12 19 173 8 250 -15 40 -12 46 -9 36 19 -8 22 -2 33 17 33 20 0 8 22 -34 63 -60 59 -69 61 -179 50 -64 -7 -121 -4 -127 5 -41 67 -411 -30 -411 -108 1 -58 125 -119 152 -75 16 25 28 26 62 8 37 -19 43 -16 54 27 15 60 43 64 72 10 12 -22 34 -40 50 -40 62 0 179 -86 138 -102 -68 -27 -140 -19 -182 21 -39 36 -43 36 -51 4 -10 -39 -155 -38 -155 1 0 12 -28 15 -68 8 -57 -11 -71 -7 -81 26 -7 22 -31 46 -52 52 -21 7 -39 26 -39 42 0 24 -8 25 -43 6 -39 -20 -40 -25 -10 -41 18 -11 33 -31 33 -46 0 -15 11 -32 25 -38 16 -6 13 -10 -8 -11 -18 -1 -37 -21 -43 -44 -11 -40 -6 -42 67 -30 74 12 106 -9 59 -38 -13 -8 -13 -25 0 -50 17 -31 11 -39 -44 -51 -57 -12 -60 -17 -30 -39 42 -30 44 -50 4 -50 -16 0 -30 9 -30 20 0 11 -14 20 -31 20 -55 0 -22 -65 44 -88 35 -12 83 -46 106 -76 50 -64 114 -58 79 8 -31 58 -7 68 73 30 39 -19 93 -34 120 -34 28 0 55 -11 60 -25 6 -17 37 -23 89 -18 81 7 99 -10 56 -53 -13 -13 -17 -24 -9 -24 9 0 29 14 46 30 17 17 38 25 49 19 31 -19 20 -42 -33 -66 -31 -14 -49 -36 -45 -58 8 -48 -72 -57 -135 -16 -27 18 -49 23 -49 13 0 -41 41 -124 56 -115 9 6 29 2 45 -8 16 -10 20 -19 9 -20 -11 -1 -36 -5 -55 -9 -21 -4 -30 2 -22 15 8 12 4 15 -10 7 -35 -22 -27 -72 12 -72 30 -1 31 -3 5 -20 -78 -51 -230 7 -172 65 17 17 26 34 21 40 -5 5 4 42 21 82 17 40 24 73 15 73 -20 1 40 39 61 40 9 0 11 -9 4 -20 -15 -24 10 -26 45 -4 20 13 20 24 -1 53 -26 34 -30 33 -81 -15 -67 -62 -125 -58 -118 7 l6 46 -38 -44 c-25 -29 -50 -39 -73 -30 -25 9 -33 5 -26 -14 12 -36 142 -71 152 -41 4 12 16 17 26 11 24 -15 -27 -68 -52 -54 -11 6 -9 -1 4 -15 20 -21 17 -32 -10 -52 -19 -13 -34 -37 -34 -51 0 -56 -87 -33 -118 30 -36 76 -10 124 50 92 51 -27 49 5 -2 36 -22 14 -40 42 -40 62 0 20 -19 54 -42 75 -24 21 -50 56 -59 78 -13 31 -17 21 -18 -42 -2 -148 -66 -174 -124 -50 -47 100 -77 128 -77 73 0 -33 -68 -77 -87 -57 -29 28 -10 68 42 88 76 30 146 28 167 -4 25 -39 24 44 -1 109 -14 37 -11 56 10 74 16 13 28 39 27 56 -1 20 -5 23 -11 9 -6 -15 -31 -20 -68 -13 -92 19 -132 -26 -77 -85 24 -26 52 -42 61 -36 9 6 17 6 17 0 0 -5 -45 -31 -100 -56 -55 -25 -100 -57 -100 -70 0 -40 -92 -126 -135 -126 -22 0 -50 -12 -62 -26 -17 -20 -6 -24 53 -19 l74 6 -88 -32 c-48 -18 -109 -28 -135 -24 -68 13 -102 -35 -47 -65 64 -34 235 -6 261 42 15 29 34 35 75 27 52 -11 52 -10 15 20 -46 37 -25 67 56 82 46 8 53 3 53 -41 0 -31 11 -50 30 -50 17 0 30 -9 30 -20 0 -11 14 -20 30 -20 17 0 30 -7 30 -16 0 -27 -137 -84 -202 -84 -33 0 -55 -9 -49 -19 7 -11 -16 -34 -50 -51 -52 -27 -58 -37 -37 -63 21 -25 18 -29 -23 -25 -94 8 -155 -2 -154 -27 6 -149 -74 -183 -165 -70 l-37 45 -21 -55 c-12 -30 -34 -55 -51 -55 -41 0 -79 -73 -48 -92 14 -9 18 -5 9 9 -8 13 -7 24 2 25 9 0 30 4 48 7 17 4 31 -6 31 -21 0 -21 -6 -22 -28 -4 -23 19 -27 18 -23 -5 4 -16 -5 -49 -19 -74 -15 -28 -17 -45 -4 -45 12 0 21 14 21 30 0 17 15 30 32 30 28 0 29 -5 5 -34 -23 -29 -23 -31 1 -17 19 12 24 10 14 -6 -8 -13 -30 -24 -48 -24 -25 -1 -22 -6 11 -20 29 -11 40 -28 33 -48 -9 -23 1 -31 40 -31 38 0 53 11 55 40 1 22 4 49 7 60 3 11 6 42 8 70 2 50 91 128 117 102 7 -7 3 -40 -9 -73 -35 -93 8 -70 76 41 74 120 67 119 118 19 23 -44 64 -89 91 -99 27 -11 49 -28 49 -38 0 -11 18 -16 40 -12 23 4 40 -3 40 -17 0 -14 31 -27 72 -30 48 -3 67 3 58 18 -8 12 -28 16 -45 10 -25 -10 -26 -7 -5 19 20 25 19 30 -5 30 -17 0 -41 14 -55 30 -14 17 -30 26 -36 21 -6 -6 -41 21 -79 60 -77 80 -76 100 2 70 70 -26 167 -6 178 38 8 27 -1 32 -38 25 -35 -6 -47 0 -47 26 0 21 11 30 28 24 15 -6 34 -6 41 1 7 7 37 14 67 14 48 1 54 9 56 73 4 121 61 141 138 47 11 -14 53 -30 94 -38 100 -17 104 -32 31 -110 -57 -61 -60 -71 -39 -128 13 -34 17 -68 8 -77 -23 -23 -109 43 -97 74 6 15 -7 42 -28 61 -22 19 -39 47 -39 62 0 33 -52 36 -71 5 -8 -12 -2 -30 13 -40 21 -13 12 -23 -36 -42 -67 -25 -72 -64 -23 -161 20 -38 57 -47 57 -14 0 12 9 16 20 9 11 -7 20 -35 20 -63 0 -34 13 -54 40 -61 22 -6 40 -16 40 -23 0 -7 23 -13 50 -13 61 0 66 21 9 36 -32 8 -40 24 -35 67 9 82 72 88 101 9 14 -35 38 -62 57 -62 19 0 39 -13 45 -30 19 -49 93 -37 94 15 l2 45 18 -45 c10 -25 28 -45 41 -45 33 0 5 93 -44 142 -51 51 -40 86 28 91 77 6 122 -62 82 -123 -25 -39 -25 -47 2 -70 25 -20 30 -19 30 8 0 17 8 32 19 32 10 0 15 18 11 40 -9 49 7 51 44 5 26 -32 27 -31 14 15 l-13 50 47 -40 c30 -25 38 -28 22 -7 -21 27 -21 35 0 43 20 8 20 11 1 12 -14 1 -25 12 -25 23 0 12 8 16 18 10 10 -6 23 2 29 18 16 41 -18 57 -66 32 -82 -44 -401 -11 -401 42 0 30 163 100 197 85 75 -35 163 -25 141 15 -15 28 -13 36 6 32 14 -3 25 11 23 30 -1 19 4 31 11 26 33 -20 67 30 72 106 7 80 6 81 -52 70 -82 -17 -78 42 7 93 114 70 199 42 125 -41 -35 -37 -21 -99 23 -99 60 0 78 -97 26 -145 -27 -25 -51 -43 -54 -40 -8 8 -125 -54 -125 -67 0 -6 20 -8 45 -4 30 4 43 -3 39 -21 -3 -17 6 -24 24 -17 32 13 52 -24 52 -95 0 -43 22 -65 68 -67 10 0 26 -13 36 -27 13 -20 16 -16 12 13 -4 25 4 38 20 35 15 -4 21 4 13 16 -7 12 -18 17 -24 11 -14 -15 -125 127 -125 160 0 17 13 22 33 14 23 -9 29 -5 19 11 -8 12 -9 32 -2 43 34 54 147 -90 155 -197 4 -46 46 -73 66 -42 22 36 346 19 356 -18 5 -22 9 -18 11 12 2 40 -8 45 -83 48 -47 1 -116 3 -153 5 -38 1 -73 14 -77 28 -6 18 7 23 43 16 52 -9 88 15 54 37 -11 6 -25 3 -32 -8 -8 -13 -29 -10 -58 9 -25 17 -51 24 -59 17 -7 -8 -13 -3 -13 10 0 12 9 23 20 23 11 0 20 9 20 20 0 11 -13 20 -30 20 -16 0 -30 -13 -30 -30 0 -46 -21 -37 -89 38 -71 80 -98 203 -30 142 35 -33 39 -33 51 -2 11 27 28 17 96 -57 106 -115 108 -114 101 24 -5 92 -2 103 12 55 19 -64 82 -78 203 -42 48 14 51 20 30 57 -19 31 -19 42 1 49 40 15 30 63 -11 53 -20 -5 -52 8 -73 32 -20 22 -30 41 -22 41 9 0 5 14 -9 30 -19 23 -19 30 -1 30 13 0 37 14 54 30 27 27 26 30 -2 30 -17 0 -31 -9 -31 -20 0 -11 -10 -20 -21 -20 -12 0 -20 16 -18 35 6 63 -1 88 -21 75 -29 -18 -94 7 -108 41 -17 45 7 86 44 76 41 -9 186 156 148 168 -13 5 -24 17 -24 28 0 11 10 13 22 6 15 -10 18 0 8 31 -10 31 -7 41 8 31 12 -7 22 -32 22 -54 0 -69 49 -29 54 45 4 50 0 60 -14 38 -16 -24 -19 -21 -20 16 0 26 9 41 20 34 12 -8 20 22 20 77 0 62 -9 92 -32 101 -46 18 -48 16 -48 -38 0 -39 -10 -49 -45 -48 -27 2 -33 6 -14 11 22 6 29 27 23 78 -7 53 -1 69 24 69 18 0 39 0 47 0 8 0 15 -8 15 -18 0 -10 7 -25 15 -34 8 -8 15 0 15 17 0 52 -53 91 -109 80 -40 -7 -51 -1 -53 28 0 21 -6 26 -11 12 -6 -14 -27 -25 -47 -25 -19 0 -41 -13 -47 -30 -7 -16 -2 -30 9 -30 24 0 96 -80 97 -108 1 -9 -17 6 -40 34 -24 31 -53 48 -70 41 -16 -6 -29 -2 -29 10 0 11 -18 26 -40 33 -22 7 -40 22 -40 33 0 10 9 14 21 6 11 -7 34 -2 50 12 16 13 29 18 29 11 0 -7 17 -4 39 7 21 12 37 40 35 62 -3 40 -4 40 -30 5 -24 -32 -25 -30 -14 24 12 57 11 58 -19 21 -17 -21 -31 -55 -31 -75 0 -44 -26 -46 -61 -5 -35 43 -198 137 -212 122 -7 -6 -25 2 -41 18 -33 33 -296 42 -315 11z m-121 -382 c8 -12 -23 -20 -78 -20 -49 0 -95 9 -102 20 -8 12 23 20 78 20 49 0 95 -9 102 -20z m-19 -334 c28 -28 40 -29 74 -8 39 25 74 5 75 -42 0 -25 119 -72 158 -62 47 12 123 -27 117 -60 -3 -16 21 -23 70 -22 56 2 77 -7 86 -35 7 -24 31 -37 65 -38 30 0 70 -12 89 -27 56 -43 -1 -76 -103 -60 -82 13 -134 48 -72 48 18 0 27 9 20 20 -8 13 -26 13 -52 -1 -21 -12 -34 -30 -27 -40 15 -25 -54 -24 -119 0 -33 13 -55 13 -63 0 -6 -11 -21 -14 -32 -7 -11 7 -5 22 15 37 20 15 28 35 18 50 -8 15 -4 32 10 41 34 21 7 60 -41 60 -44 0 -51 -40 -15 -76 27 -27 -3 -33 -124 -25 -89 6 -94 12 -52 59 33 37 33 39 -5 51 -67 21 -143 92 -143 132 0 48 8 48 51 5z m315 -7 c9 -34 6 -37 -18 -18 -19 16 -28 17 -28 2 0 -12 -13 -17 -30 -10 -44 17 -37 43 15 53 25 5 46 10 48 11 1 2 7 -16 13 -38z m-547 -30 c-22 -27 -18 -28 29 -10 93 36 114 28 91 -32 -19 -48 -17 -51 14 -25 29 24 32 24 24 -2 -6 -16 -30 -33 -54 -36 -23 -4 -43 -20 -43 -35 0 -16 -16 -29 -35 -29 -42 0 -94 72 -65 90 11 7 15 34 8 61 -10 38 -4 49 22 49 29 0 31 -5 9 -31z m796 -38 c29 -28 -16 -72 -54 -51 -77 41 -91 100 -18 79 34 -10 67 -22 72 -28z m248 -316 c2 -14 4 -34 6 -45 1 -11 9 -31 18 -45 20 -32 -32 -53 -94 -38 -37 10 -52 1 -70 -37 -28 -63 -44 -63 -103 0 -35 37 -51 44 -63 25 -25 -41 -55 9 -43 72 9 46 19 54 54 43 97 -30 132 -34 132 -12 0 12 -16 23 -35 25 -19 2 6 9 55 17 139 22 140 22 143 -5z m-1303 -220 c0 -26 -132 -146 -207 -187 -76 -42 -113 -8 -53 48 30 28 40 53 31 82 -12 37 -7 40 43 30 42 -8 67 0 93 29 36 40 93 38 93 -2z m683 -68 c21 -26 22 -35 2 -42 -14 -5 -20 -17 -14 -27 6 -10 4 -19 -5 -20 -149 -14 -175 5 -91 64 25 17 39 37 32 45 -8 7 0 13 17 13 17 0 43 -15 59 -33z m-247 -331 c39 -39 28 -59 -31 -52 -64 7 -91 76 -30 76 20 0 48 -11 61 -24z"/> <path d="M5599 1949 c-21 -26 -19 -38 15 -72 l41 -41 42 59 c23 33 36 65 29 72 -24 24 -101 13 -127 -18z"/> <path d="M5921 1935 c0 -25 18 -76 39 -115 l38 -70 1 115 c1 102 -4 115 -39 115 -28 0 -40 -13 -39 -45z"/> <path d="M5831 1942 c-6 -10 6 -56 27 -102 35 -78 39 -81 52 -39 11 32 5 53 -18 70 -19 14 -27 37 -20 56 13 34 -21 47 -41 15z"/> <path d="M2 1896 c0 -25 6 -35 11 -21 16 39 47 30 35 -10 -11 -33 -10 -33 17 -1 27 33 87 32 215 -4 6 -1 -12 -11 -40 -22 -39 -16 -43 -24 -20 -38 18 -11 34 -10 42 4 8 11 25 14 39 5 15 -9 20 -7 12 6 -7 11 1 26 18 33 17 6 26 4 20 -6 -5 -9 12 -17 39 -17 27 0 44 8 38 19 -7 10 0 17 15 15 89 -12 112 50 25 66 -183 35 -468 17 -466 -29z"/> <path d="M1077 1910 c-44 -25 -90 -124 -67 -147 14 -14 913 -33 961 -20 35 10 49 6 49 -14 0 -15 13 -67 30 -116 62 -183 108 -543 121 -953 7 -226 16 -441 20 -480 4 -38 7 -95 8 -125 1 -51 7 -55 83 -55 l81 0 -6 138 c-4 76 0 134 9 129 8 -6 -2 19 -24 55 -22 36 -35 73 -30 82 6 9 3 27 -5 41 -19 30 -23 255 -4 243 17 -10 42 54 26 69 -6 7 -18 0 -27 -14 -13 -21 -19 -19 -29 6 -7 19 -4 28 7 21 11 -7 20 1 20 17 0 16 -13 34 -28 40 -19 7 -25 26 -17 56 11 43 13 43 28 6 18 -42 11 61 -10 147 -6 26 -3 40 8 33 11 -6 25 16 32 51 9 47 21 59 45 50 25 -10 27 -7 8 12 -31 31 -89 -11 -73 -53 6 -16 1 -29 -11 -29 -12 0 -22 14 -22 30 0 17 -10 30 -22 30 -16 0 -15 9 2 30 13 16 32 25 42 19 10 -6 12 4 5 22 -10 25 -16 27 -29 6 -9 -14 -23 -19 -31 -10 -9 8 -4 23 11 32 16 9 21 28 12 44 -8 15 7 2 33 -29 l47 -56 3 49 c2 32 -13 57 -44 73 -29 16 -43 39 -38 63 8 46 -9 100 -29 88 -8 -5 -25 9 -38 29 -17 28 -17 42 -1 52 15 9 18 5 7 -12 -11 -18 -8 -21 8 -11 18 11 16 25 -11 54 -32 35 -32 38 -1 26 57 -22 38 9 -31 52 l-65 40 55 -9 c31 -5 51 -2 46 7 -6 9 3 28 19 41 17 14 30 17 30 7 0 -9 10 -3 22 13 16 23 24 24 31 5 6 -14 17 -25 25 -25 24 0 18 53 -6 56 -12 1 -49 7 -82 13 -48 9 -52 8 -20 -7 44 -21 42 -23 -26 -30 -37 -4 -45 2 -37 31 5 20 -1 38 -14 40 -13 1 -41 4 -63 6 -22 2 -62 10 -90 17 -130 38 -229 33 -265 -12 -33 -42 -34 -43 -36 -4 -1 34 -4 33 -22 -10 -18 -45 -22 -47 -39 -15 -16 29 -28 31 -61 13 -32 -17 -38 -16 -27 1 17 29 -53 20 -75 -9 -9 -12 -15 -10 -15 5 0 14 -13 25 -30 25 -16 0 -30 -10 -30 -21 0 -12 -9 -16 -20 -9 -11 7 -20 1 -21 -14 0 -16 -12 -11 -30 13 -19 25 -29 29 -29 11 0 -14 -6 -21 -13 -14 -7 8 -25 4 -38 -7 -18 -15 -29 -14 -39 1 -7 11 -4 19 7 15 10 -3 20 2 21 10 6 46 -1 58 -28 48 -16 -7 -30 -3 -30 8 0 26 -20 23 -83 -11z m932 -128 c-25 -24 -36 -26 -43 -7 -5 14 -17 21 -26 15 -9 -6 -37 -1 -63 11 -46 20 -46 20 -2 11 25 -4 49 -1 55 7 5 9 32 11 61 6 49 -10 50 -12 18 -43z"/> <path d="M5213 1810 c-13 -32 3 -90 24 -89 21 1 86 54 86 70 1 46 -94 62 -110 19z"/> <path d="M940 1800 c0 -10 -22 -25 -48 -31 -27 -7 -69 -35 -95 -63 l-47 -51 45 23 c25 13 55 18 66 11 32 -19 119 47 119 91 0 22 -9 40 -20 40 -11 0 -20 -9 -20 -20z"/> <path d="M5154 1755 c20 -36 38 -69 41 -73 3 -5 10 -3 17 3 6 6 -3 34 -21 61 -26 39 -27 52 -7 60 14 6 5 12 -20 12 l-46 2 36 -65z"/> <path d="M3200 1729 c0 -16 10 -29 22 -29 14 0 17 -20 9 -53 -12 -47 -10 -51 17 -28 23 19 26 35 11 63 -14 26 -14 38 0 38 39 0 21 31 -19 35 -23 1 -40 -10 -40 -26z"/> <path d="M423 1698 c21 -14 22 -17 1 -18 -15 0 -22 -8 -16 -17 28 -44 -44 -90 -135 -86 -51 2 -93 -5 -93 -15 0 -9 -11 -17 -25 -16 -80 4 -155 -56 -155 -123 0 -53 7 -65 32 -55 17 7 40 12 52 12 11 0 15 14 8 31 -6 18 1 45 16 60 16 16 32 20 35 10 11 -32 268 -33 306 -2 26 22 38 22 57 3 19 -19 11 -34 -34 -67 -32 -24 -85 -73 -118 -109 -86 -94 -161 -92 -143 4 18 96 -28 111 -131 42 -67 -44 -80 -64 -80 -119 l0 -67 143 -4 c79 -2 149 -5 155 -6 53 -5 71 5 42 24 -16 11 -21 19 -10 19 11 0 37 -13 59 -30 50 -38 93 -37 78 1 -8 23 -2 27 24 17 26 -10 31 -7 19 13 -12 20 -8 23 18 14 20 -8 29 -6 22 6 -7 11 2 20 19 20 35 0 33 -4 38 120 2 55 13 91 28 93 14 1 30 4 35 7 6 3 17 7 25 9 52 15 83 38 73 54 -7 11 -25 8 -43 -7 -28 -23 -30 -18 -20 49 7 42 4 75 -6 75 -11 0 -19 -10 -19 -21 0 -12 -10 -15 -23 -7 -16 10 -18 5 -6 -14 26 -40 28 -76 7 -89 -17 -11 -27 18 -20 57 2 10 -6 11 -18 4 -11 -7 -16 -20 -10 -29 18 -30 -47 -39 -71 -10 -13 16 -16 29 -7 29 9 0 6 10 -6 22 -13 13 -18 34 -13 48 5 14 -2 33 -17 41 -14 9 -19 8 -11 -1 18 -20 -21 -70 -52 -69 -13 0 -7 9 12 21 20 11 30 30 23 41 -7 12 -2 28 12 37 15 9 3 15 -30 15 -38 0 -46 -5 -27 -17z"/> <path d="M1066 1668 c7 -7 -7 -28 -30 -47 -29 -24 -35 -39 -19 -49 13 -8 23 -5 23 6 0 11 16 16 35 9 27 -8 29 -6 8 9 -19 13 -21 23 -5 33 29 18 28 51 -1 51 -13 0 -18 -6 -11 -12z"/> <path d="M1641 1540 c-60 -66 -124 -120 -143 -120 -24 0 -31 -12 -24 -40 11 -43 -39 -49 -304 -40 -55 2 -94 -2 -87 -10 7 -7 72 -13 143 -14 97 -2 128 -9 121 -28 -6 -14 -28 -22 -50 -17 -28 5 -37 -1 -30 -21 6 -15 0 -32 -13 -37 -13 -5 -8 -11 11 -11 20 -1 35 13 35 33 1 27 5 29 18 8 13 -20 26 -14 60 28 23 30 48 50 54 43 7 -6 -7 -32 -30 -56 -23 -25 -42 -54 -42 -64 0 -11 19 4 42 33 22 30 51 47 63 40 13 -8 15 -4 6 11 -9 15 30 71 106 148 139 143 213 234 189 234 -9 0 -65 -54 -125 -120z"/> <path d="M5380 1604 c0 -12 27 -27 60 -34 33 -7 60 -21 60 -32 0 -10 26 -18 58 -18 49 0 57 7 47 41 -6 25 -21 37 -39 30 -15 -6 -23 -2 -16 9 7 11 3 20 -9 20 -11 0 -21 -10 -21 -22 0 -22 -32 -18 -105 12 -20 8 -35 5 -35 -6z"/> <path d="M706 1267 c8 -7 0 -23 -17 -35 -24 -18 -17 -22 34 -22 35 0 67 11 72 25 6 17 -3 21 -27 12 -23 -10 -30 -6 -20 10 9 14 1 23 -20 23 -19 0 -29 -6 -22 -13z"/> <path d="M4510 1240 c-15 -25 40 -49 69 -30 12 7 16 21 10 31 -15 25 -63 24 -79 -1z"/> <path d="M5911 1172 c-43 -39 -87 -72 -97 -72 -24 0 -8 -43 17 -43 10 -1 37 -11 59 -23 22 -12 47 -21 55 -18 8 2 15 -18 15 -46 0 -27 8 -50 19 -50 10 0 18 36 17 80 0 44 -10 80 -21 80 -12 0 -10 12 4 29 13 16 21 53 17 82 l-6 54 -79 -73z"/> <path d="M1694 1154 c-13 -35 11 -43 94 -35 21 3 45 -8 54 -22 13 -21 17 -19 18 8 0 27 -16 35 -68 35 -38 0 -72 11 -77 24 -5 15 -13 11 -21 -10z"/> <path d="M2560 1101 c28 -22 66 -35 85 -29 24 7 35 0 35 -26 1 -29 4 -31 19 -7 18 29 -33 87 -62 69 -8 -5 -39 1 -70 12 l-57 21 50 -40z"/> <path d="M812 1085 c-15 -14 -22 -16 -73 -22 -12 -2 -16 -12 -9 -23 7 -12 22 -15 34 -8 11 7 27 2 36 -12 11 -17 19 -18 29 -2 7 12 3 22 -10 22 -18 0 -18 8 1 30 25 31 19 42 -8 15z"/> <path d="M2729 1036 c-18 -56 11 -84 43 -42 24 32 30 32 50 6 18 -25 20 -24 10 7 -7 20 -12 43 -12 50 0 31 -81 12 -91 -21z"/> <path d="M1240 1036 c-22 -8 -40 -17 -40 -20 0 -14 388 4 402 18 20 20 -308 22 -362 2z"/> <path d="M2907 995 c-9 -14 -2 -17 18 -10 18 7 36 1 42 -15 6 -15 0 -31 -13 -36 -13 -5 0 -8 28 -6 49 2 63 52 15 52 -11 0 -15 7 -10 16 6 9 -7 17 -28 19 -21 1 -44 -8 -52 -20z"/> <path d="M1051 922 c-6 -10 -65 -15 -132 -13 -66 2 -125 -3 -131 -12 -17 -28 -72 -20 -56 8 10 18 8 19 -10 3 -13 -12 -17 -37 -10 -56 10 -25 18 -28 28 -11 28 45 220 40 220 -6 0 -25 -10 -36 -28 -29 -17 7 -33 -6 -41 -32 -13 -43 -14 -43 -31 -4 -9 22 -18 29 -19 15 0 -15 -30 -25 -74 -25 -109 0 -61 -28 56 -33 55 -2 96 0 91 5 -11 12 124 148 148 148 10 0 18 14 18 30 0 34 -12 39 -29 12z"/> <path d="M1463 869 c-13 -28 -32 -46 -43 -39 -11 7 -20 -3 -20 -21 0 -75 -121 -178 -215 -183 -79 -5 -86 -1 -75 35 9 27 2 43 -24 53 -20 7 -43 23 -51 35 -10 14 -14 13 -15 -4 0 -14 -14 -25 -31 -25 -17 0 -26 -9 -20 -19 7 -11 25 -14 42 -8 33 13 37 -9 9 -53 -14 -22 -19 -23 -20 -4 0 15 -9 21 -20 14 -11 -7 -20 -2 -20 10 0 13 -13 9 -32 -9 -17 -17 -38 -27 -47 -21 -9 5 -26 -2 -37 -15 -16 -20 27 -25 200 -25 l220 0 53 64 c55 65 114 75 389 68 l56 -2 -76 -106 -75 -106 -120 3 c-142 5 -151 2 -137 -51 13 -50 38 -52 51 -2 10 39 106 54 127 19 6 -10 19 -12 29 -6 29 18 22 -23 -8 -48 -15 -13 -34 -16 -43 -8 -9 8 -10 3 -1 -11 38 -66 -72 -164 -185 -164 -72 0 -102 7 -93 22 10 15 3 16 -24 3 -20 -11 -49 -15 -64 -10 -17 6 -24 -1 -19 -18 7 -20 43 -25 142 -21 121 5 132 3 120 -30 -8 -20 19 -4 60 36 41 40 74 82 74 94 0 36 37 47 81 24 31 -17 49 -17 71 2 23 18 35 19 53 1 27 -27 62 -31 46 -4 -7 10 27 17 77 16 63 -2 85 -10 78 -29 -6 -14 -18 -21 -28 -15 -10 6 -18 -3 -18 -21 0 -18 -20 -68 -45 -111 -44 -77 -75 -101 -75 -58 0 12 -11 15 -25 6 -13 -8 -54 -13 -90 -10 -36 4 -65 -3 -65 -14 0 -12 36 -19 79 -18 93 4 117 -12 81 -55 -17 -21 -18 -30 -2 -30 13 0 33 23 46 50 12 28 30 50 39 50 9 0 17 9 17 19 0 10 59 106 130 213 129 193 167 276 89 192 -23 -25 -36 -53 -30 -63 6 -10 -9 -24 -34 -32 -25 -8 -50 -22 -56 -31 -12 -19 -354 -29 -372 -12 -5 5 23 56 63 111 72 100 151 150 166 106 4 -13 14 -19 21 -15 8 5 70 12 139 15 184 9 150 37 -46 37 -179 0 -190 5 -137 63 32 35 30 37 -41 37 -44 0 -69 8 -62 20 7 12 -2 14 -22 6 -20 -7 -30 -5 -23 6 7 11 -5 19 -25 19 -20 0 -33 -6 -28 -14 5 -8 0 -20 -10 -26 -11 -6 -25 -2 -32 9 -7 11 -21 15 -31 9 -11 -6 -19 -2 -19 9 0 11 -15 15 -34 8 -23 -9 -17 9 23 60 30 41 47 74 37 74 -11 0 -30 -23 -43 -51z"/> <path d="M449 871 c-23 -18 -29 -31 -14 -32 87 -9 145 -4 144 12 0 11 -23 17 -50 15 -28 -2 -45 4 -38 15 16 27 3 24 -42 -10z"/> <path d="M2000 868 c0 -13 -24 -20 -55 -16 -61 7 -81 -3 -125 -62 -28 -39 -28 -39 12 -5 27 23 77 36 150 37 59 0 95 6 78 13 -16 6 -37 21 -45 33 -10 16 -14 16 -15 0z"/> <path d="M1040 817 c0 -18 18 -22 95 -22 25 0 45 -8 45 -18 0 -16 -31 -25 -66 -19 -10 2 -11 -6 -5 -17 20 -32 102 17 102 60 0 33 -13 39 -85 36 -47 -2 -86 -11 -86 -20z"/> <path d="M1287 810 c70 -37 66 -37 80 0 9 23 -5 30 -63 30 l-74 0 57 -30z"/> <path d="M585 773 c-43 -22 -61 -53 -30 -53 8 0 42 18 75 40 63 42 32 51 -45 13z"/> <path d="M1242 755 c-75 -38 -81 -84 -10 -66 70 17 73 20 65 59 -6 26 -15 27 -55 7z"/> <path d="M71 662 c-38 -15 -38 -15 0 -32 45 -19 61 -24 90 -27 12 -2 15 -13 8 -25 -7 -12 13 -8 46 9 42 22 65 25 80 10 15 -15 34 -13 65 9 53 37 33 51 -70 46 -50 -3 -78 -13 -75 -28 8 -38 -23 -28 -50 16 -27 43 -35 45 -94 22z"/> <path d="M4000 622 c0 -13 -9 -19 -20 -12 -11 7 -20 3 -20 -9 0 -11 -17 -21 -38 -21 -79 0 -107 -22 -68 -51 30 -21 41 -21 66 4 16 16 48 41 70 56 22 15 33 34 25 43 -8 8 -15 4 -15 -10z"/> <path d="M700 538 c0 -13 -21 -19 -50 -13 -27 5 -50 2 -50 -8 0 -9 17 -17 38 -17 21 0 51 -5 66 -10 18 -7 27 3 27 30 0 22 -7 40 -15 40 -9 0 -16 -10 -16 -22z"/> <path d="M1153 465 c-40 -52 -98 -123 -128 -157 -30 -34 -79 -94 -109 -133 -52 -68 -256 -123 -256 -69 0 9 -9 11 -20 4 -39 -24 2 -49 61 -37 40 8 59 4 59 -13 0 -19 7 -19 28 -2 15 13 35 21 45 18 27 -9 108 56 92 74 -8 9 0 11 18 5 22 -8 31 -1 30 22 -2 22 12 32 42 31 25 0 45 7 45 17 0 9 11 11 25 3 15 -8 18 -7 8 4 -9 10 -25 18 -35 18 -36 0 -23 40 19 60 24 11 43 27 43 36 0 9 10 10 23 2 15 -9 18 -5 9 9 -8 13 -25 18 -36 10 -13 -8 -16 -4 -8 10 8 13 26 23 41 23 14 0 31 26 38 58 8 42 22 57 47 53 20 -3 25 -1 11 3 -14 5 -20 17 -14 28 33 52 -15 6 -78 -77z"/> <path d="M4605 485 c-44 -15 8 -83 55 -71 22 6 40 19 40 30 0 10 -8 13 -19 7 -10 -7 -26 1 -35 16 -9 15 -27 23 -41 18z"/> <path d="M5980 392 c0 -15 -16 -33 -35 -40 -19 -6 -48 -18 -63 -25 -19 -8 -23 -4 -12 13 11 17 8 21 -7 12 -46 -29 -21 -52 57 -52 76 0 80 3 80 60 0 33 -4 60 -10 60 -5 0 -10 -12 -10 -28z"/> <path d="M579 322 c-42 -52 -75 -76 -96 -69 -22 7 -25 5 -9 -7 17 -12 -5 -50 -77 -131 -98 -113 -108 -154 -17 -75 25 22 55 40 65 40 11 0 14 13 8 28 -6 17 37 79 105 151 63 68 108 127 100 132 -9 6 -44 -26 -79 -69z"/> <path d="M770 378 c-78 -12 -45 -25 60 -23 182 3 235 7 225 16 -16 17 -193 21 -285 7z"/> <path d="M133 323 c-58 -63 -39 -78 107 -81 81 -1 140 6 140 17 0 11 -39 16 -93 10 -105 -10 -162 19 -125 64 34 41 9 33 -29 -10z"/> <path d="M2399 165 c36 -118 61 -165 91 -165 41 0 38 73 -5 98 -19 10 -28 26 -20 33 8 8 -5 32 -28 52 -56 48 -57 47 -38 -18z"/> <path d="M1420 100 c-23 -15 -14 -19 35 -20 36 0 72 -1 80 -1 7 -1 17 8 21 20 9 26 -95 27 -136 1z"/> <path d="M4073 50 c-47 -34 21 -59 120 -45 l57 9 -64 3 c-36 2 -66 15 -70 32 -5 24 -11 24 -43 1z"/> </g> </svg> 